<svg xmlns="http://www.w3.org/2000/svg" xmlns:xlink="http://www.w3.org/1999/xlink" contentStyleType="text/css" data-diagram-type="SEQUENCE" height="386px" preserveAspectRatio="none" style="width:623px;height:386px;background:#FFFFFF;" version="1.1" viewBox="0 0 623 386" width="623px" zoomAndPan="magnify"><defs/><g><rect fill="none" height="119.3359" style="stroke:#000000;stroke-width:1.5;" width="606.5474" x="10" y="169.5625"/><g><title>Controller</title><rect fill="#000000" fill-opacity="0.00000" height="224.6016" width="8" x="53.5864" y="81.2969"/><line style="stroke:#181818;stroke-width:0.5;stroke-dasharray:5.0,5.0;" x1="57" x2="57" y1="81.2969" y2="305.8984"/></g><g><title>Terminal</title><rect fill="#000000" fill-opacity="0.00000" height="224.6016" width="8" x="226.8071" y="81.2969"/><line style="stroke:#181818;stroke-width:0.5;stroke-dasharray:5.0,5.0;" x1="229.9121" x2="229.9121" y1="81.2969" y2="305.8984"/></g><g><title>Local Storage</title><rect fill="#000000" fill-opacity="0.00000" height="224.6016" width="8" x="426.3325" y="81.2969"/><line style="stroke:#181818;stroke-width:0.5;stroke-dasharray:5.0,5.0;" x1="429.4536" x2="429.4536" y1="81.2969" y2="305.8984"/></g><g><title>Central Server</title><rect fill="#000000" fill-opacity="0.00000" height="224.6016" width="8" x="544.8794" y="81.2969"/><line style="stroke:#181818;stroke-width:0.5;stroke-dasharray:5.0,5.0;" x1="548.2114" x2="548.2114" y1="81.2969" y2="305.8984"/></g><g class="participant participant-head" data-participant="Controller"><text fill="#000000" font-family="sans-serif" font-size="14" lengthAdjust="spacing" textLength="69.1729" x="20" y="77.9951">Controller</text><ellipse cx="57.5864" cy="13.5" fill="#E2E2F0" rx="8" ry="8" style="stroke:#181818;stroke-width:0.5;"/><path d="M57.5864,21.5 L57.5864,48.5 M44.5864,29.5 L70.5864,29.5 M57.5864,48.5 L44.5864,63.5 M57.5864,48.5 L70.5864,63.5" fill="none" style="stroke:#181818;stroke-width:0.5;"/></g><g class="participant participant-tail" data-participant="Controller"><text fill="#000000" font-family="sans-serif" font-size="14" lengthAdjust="spacing" textLength="69.1729" x="20" y="317.8936">Controller</text><ellipse cx="57.5864" cy="329.6953" fill="#E2E2F0" rx="8" ry="8" style="stroke:#181818;stroke-width:0.5;"/><path d="M57.5864,337.6953 L57.5864,364.6953 M44.5864,345.6953 L70.5864,345.6953 M57.5864,364.6953 L44.5864,379.6953 M57.5864,364.6953 L70.5864,379.6953" fill="none" style="stroke:#181818;stroke-width:0.5;"/></g><g class="participant participant-head" data-participant="Terminal"><rect fill="#E2E2F0" height="30.2969" rx="2.5" ry="2.5" style="stroke:#181818;stroke-width:0.5;" width="75.79" x="192.9121" y="50"/><text fill="#000000" font-family="sans-serif" font-size="14" lengthAdjust="spacing" textLength="61.79" x="199.9121" y="69.9951">Terminal</text></g><g class="participant participant-tail" data-participant="Terminal"><rect fill="#E2E2F0" height="30.2969" rx="2.5" ry="2.5" style="stroke:#181818;stroke-width:0.5;" width="75.79" x="192.9121" y="304.8984"/><text fill="#000000" font-family="sans-serif" font-size="14" lengthAdjust="spacing" textLength="61.79" x="199.9121" y="324.8936">Terminal</text></g><g class="participant participant-head" data-participant="LS"><text fill="#000000" font-family="sans-serif" font-size="14" lengthAdjust="spacing" textLength="95.7578" x="379.4536" y="77.9951">Local Storage</text><path d="M412.3325,29 C412.3325,19 430.3325,19 430.3325,19 C430.3325,19 448.3325,19 448.3325,29 L448.3325,55 C448.3325,65 430.3325,65 430.3325,65 C430.3325,65 412.3325,65 412.3325,55 L412.3325,29" fill="#E2E2F0" style="stroke:#181818;stroke-width:1.5;"/><path d="M412.3325,29 C412.3325,39 430.3325,39 430.3325,39 C430.3325,39 448.3325,39 448.3325,29" fill="none" style="stroke:#181818;stroke-width:1.5;"/></g><g class="participant participant-tail" data-participant="LS"><text fill="#000000" font-family="sans-serif" font-size="14" lengthAdjust="spacing" textLength="95.7578" x="379.4536" y="317.8936">Local Storage</text><path d="M412.3325,331.1953 C412.3325,321.1953 430.3325,321.1953 430.3325,321.1953 C430.3325,321.1953 448.3325,321.1953 448.3325,331.1953 L448.3325,357.1953 C448.3325,367.1953 430.3325,367.1953 430.3325,367.1953 C430.3325,367.1953 412.3325,367.1953 412.3325,357.1953 L412.3325,331.1953" fill="#E2E2F0" style="stroke:#181818;stroke-width:1.5;"/><path d="M412.3325,331.1953 C412.3325,341.1953 430.3325,341.1953 430.3325,341.1953 C430.3325,341.1953 448.3325,341.1953 448.3325,331.1953" fill="none" style="stroke:#181818;stroke-width:1.5;"/></g><g class="participant participant-head" data-participant="Central Server"><rect fill="#E2E2F0" height="30.2969" rx="2.5" ry="2.5" style="stroke:#181818;stroke-width:0.5;" width="115.3359" x="491.2114" y="50"/><text fill="#000000" font-family="sans-serif" font-size="14" lengthAdjust="spacing" textLength="101.3359" x="498.2114" y="69.9951">Central Server</text></g><g class="participant participant-tail" data-participant="Central Server"><rect fill="#E2E2F0" height="30.2969" rx="2.5" ry="2.5" style="stroke:#181818;stroke-width:0.5;" width="115.3359" x="491.2114" y="304.8984"/><text fill="#000000" font-family="sans-serif" font-size="14" lengthAdjust="spacing" textLength="101.3359" x="498.2114" y="324.8936">Central Server</text></g><g class="message" data-participant-1="Controller" data-participant-2="Terminal"><polygon fill="#181818" points="218.8071,108.4297,228.8071,112.4297,218.8071,116.4297,222.8071,112.4297" style="stroke:#181818;stroke-width:1;"/><line style="stroke:#181818;stroke-width:1;" x1="57.5864" x2="224.8071" y1="112.4297" y2="112.4297"/><text fill="#000000" font-family="sans-serif" font-size="13" lengthAdjust="spacing" textLength="55.0024" x="64.5864" y="107.3638">Scan QR</text></g><g class="message" data-participant-1="Terminal" data-participant-2="Terminal"><line style="stroke:#181818;stroke-width:1;" x1="230.8071" x2="272.8071" y1="141.5625" y2="141.5625"/><line style="stroke:#181818;stroke-width:1;" x1="272.8071" x2="272.8071" y1="141.5625" y2="154.5625"/><line style="stroke:#181818;stroke-width:1;" x1="231.8071" x2="272.8071" y1="154.5625" y2="154.5625"/><polygon fill="#181818" points="241.8071,150.5625,231.8071,154.5625,241.8071,158.5625,237.8071,154.5625" style="stroke:#181818;stroke-width:1;"/><text fill="#000000" font-family="sans-serif" font-size="13" lengthAdjust="spacing" textLength="96.916" x="237.8071" y="136.4966">Check network</text></g><path d="M10,169.5625 L74.4429,169.5625 L74.4429,176.6953 L64.4429,186.6953 L10,186.6953 L10,169.5625" fill="#EEEEEE" style="stroke:#000000;stroke-width:1.5;"/><rect fill="none" height="119.3359" style="stroke:#000000;stroke-width:1.5;" width="606.5474" x="10" y="169.5625"/><text fill="#000000" font-family="sans-serif" font-size="13" font-weight="bold" lengthAdjust="spacing" textLength="19.4429" x="25" y="182.6294">alt</text><text fill="#000000" font-family="sans-serif" font-size="11" font-weight="bold" lengthAdjust="spacing" textLength="138.0156" x="89.4429" y="181.7729">[Network unavailable]</text><g class="message" data-participant-1="Terminal" data-participant-2="LS"><polygon fill="#181818" points="418.3325,203.8281,428.3325,207.8281,418.3325,211.8281,422.3325,207.8281" style="stroke:#181818;stroke-width:1;"/><line style="stroke:#181818;stroke-width:1;" x1="230.8071" x2="424.3325" y1="207.8281" y2="207.8281"/><text fill="#000000" font-family="sans-serif" font-size="13" lengthAdjust="spacing" textLength="175.5254" x="237.8071" y="202.7622">savePreValidation(ticketId)</text></g><g class="message" data-participant-1="Terminal" data-participant-2="Controller"><polygon fill="#181818" points="68.5864,232.9609,58.5864,236.9609,68.5864,240.9609,64.5864,236.9609" style="stroke:#181818;stroke-width:1;"/><line style="stroke:#181818;stroke-width:1;stroke-dasharray:2.0,2.0;" x1="62.5864" x2="229.8071" y1="236.9609" y2="236.9609"/><text fill="#000000" font-family="sans-serif" font-size="13" lengthAdjust="spacing" textLength="149.2207" x="74.5864" y="231.895">"Mode d&#233;grad&#233; activ&#233;"</text></g><line style="stroke:#000000;stroke-width:1;stroke-dasharray:2.0,2.0;" x1="10" x2="616.5474" y1="245.9609" y2="245.9609"/><text fill="#000000" font-family="sans-serif" font-size="11" font-weight="bold" lengthAdjust="spacing" textLength="122.3535" x="15" y="256.1714">[Network available]</text><g class="message" data-participant-1="Terminal" data-participant-2="Central Server"><polygon fill="#181818" points="536.8794,276.8984,546.8794,280.8984,536.8794,284.8984,540.8794,280.8984" style="stroke:#181818;stroke-width:1;"/><line style="stroke:#181818;stroke-width:1;" x1="230.8071" x2="542.8794" y1="280.8984" y2="280.8984"/><text fill="#000000" font-family="sans-serif" font-size="13" lengthAdjust="spacing" textLength="101.6641" x="237.8071" y="275.8325">validateTicket()</text></g><!--SRC=[TP11RW8n34NtFeML5Iou08jkPbLfMb46iVya5eqcJP0d3MVY75oi1bHAAzMBI77qlbyCNujoLtBLaf8e7Q0r-dX0hhmH_OWPYG8gTfY4NLyy4Wy6OI-ECN4_4Ftml7YwOxpamIFpsvhkhT_FtRluaRFKOz6H2Adow-t2dnaDCM6NXDZgCQ4VZ9tGPAMoHOgc5qkUcVSezJdC_m16F0WksRsK81pEfxt2JeQliPrFZYJP5xy5_X_lEh6qonf4cwYpo7QpaCrLOJOdoU4B]--></g></svg>