<svg xmlns="http://www.w3.org/2000/svg" xmlns:xlink="http://www.w3.org/1999/xlink" contentStyleType="text/css" data-diagram-type="SEQUENCE" height="311px" preserveAspectRatio="none" style="width:462px;height:311px;background:#FFFFFF;" version="1.1" viewBox="0 0 462 311" width="462px" zoomAndPan="magnify"><defs/><g><g><title>Controller</title><rect fill="#000000" fill-opacity="0.00000" height="149.5313" width="8" x="38.5864" y="81.2969"/><line style="stroke:#181818;stroke-width:0.5;stroke-dasharray:5.0,5.0;" x1="42" x2="42" y1="81.2969" y2="230.8281"/></g><g><title>Terminal</title><rect fill="#000000" fill-opacity="0.00000" height="149.5313" width="8" x="206.8433" y="81.2969"/><line style="stroke:#181818;stroke-width:0.5;stroke-dasharray:5.0,5.0;" x1="209.9482" x2="209.9482" y1="81.2969" y2="230.8281"/></g><g><title>Local Storage</title><rect fill="#000000" fill-opacity="0.00000" height="149.5313" width="8" x="406.3687" y="81.2969"/><line style="stroke:#181818;stroke-width:0.5;stroke-dasharray:5.0,5.0;" x1="409.4897" x2="409.4897" y1="81.2969" y2="230.8281"/></g><g class="participant participant-head" data-participant="Controller"><text fill="#000000" font-family="sans-serif" font-size="14" lengthAdjust="spacing" textLength="69.1729" x="5" y="77.9951">Controller</text><ellipse cx="42.5864" cy="13.5" fill="#E2E2F0" rx="8" ry="8" style="stroke:#181818;stroke-width:0.5;"/><path d="M42.5864,21.5 L42.5864,48.5 M29.5864,29.5 L55.5864,29.5 M42.5864,48.5 L29.5864,63.5 M42.5864,48.5 L55.5864,63.5" fill="none" style="stroke:#181818;stroke-width:0.5;"/></g><g class="participant participant-tail" data-participant="Controller"><text fill="#000000" font-family="sans-serif" font-size="14" lengthAdjust="spacing" textLength="69.1729" x="5" y="242.8232">Controller</text><ellipse cx="42.5864" cy="254.625" fill="#E2E2F0" rx="8" ry="8" style="stroke:#181818;stroke-width:0.5;"/><path d="M42.5864,262.625 L42.5864,289.625 M29.5864,270.625 L55.5864,270.625 M42.5864,289.625 L29.5864,304.625 M42.5864,289.625 L55.5864,304.625" fill="none" style="stroke:#181818;stroke-width:0.5;"/></g><g class="participant participant-head" data-participant="Terminal"><rect fill="#E2E2F0" height="30.2969" rx="2.5" ry="2.5" style="stroke:#181818;stroke-width:0.5;" width="75.79" x="172.9482" y="50"/><text fill="#000000" font-family="sans-serif" font-size="14" lengthAdjust="spacing" textLength="61.79" x="179.9482" y="69.9951">Terminal</text></g><g class="participant participant-tail" data-participant="Terminal"><rect fill="#E2E2F0" height="30.2969" rx="2.5" ry="2.5" style="stroke:#181818;stroke-width:0.5;" width="75.79" x="172.9482" y="229.8281"/><text fill="#000000" font-family="sans-serif" font-size="14" lengthAdjust="spacing" textLength="61.79" x="179.9482" y="249.8232">Terminal</text></g><g class="participant participant-head" data-participant="LS"><text fill="#000000" font-family="sans-serif" font-size="14" lengthAdjust="spacing" textLength="95.7578" x="359.4897" y="77.9951">Local Storage</text><path d="M392.3687,29 C392.3687,19 410.3687,19 410.3687,19 C410.3687,19 428.3687,19 428.3687,29 L428.3687,55 C428.3687,65 410.3687,65 410.3687,65 C410.3687,65 392.3687,65 392.3687,55 L392.3687,29" fill="#E2E2F0" style="stroke:#181818;stroke-width:1.5;"/><path d="M392.3687,29 C392.3687,39 410.3687,39 410.3687,39 C410.3687,39 428.3687,39 428.3687,29" fill="none" style="stroke:#181818;stroke-width:1.5;"/></g><g class="participant participant-tail" data-participant="LS"><text fill="#000000" font-family="sans-serif" font-size="14" lengthAdjust="spacing" textLength="95.7578" x="359.4897" y="242.8232">Local Storage</text><path d="M392.3687,256.125 C392.3687,246.125 410.3687,246.125 410.3687,246.125 C410.3687,246.125 428.3687,246.125 428.3687,256.125 L428.3687,282.125 C428.3687,292.125 410.3687,292.125 410.3687,292.125 C410.3687,292.125 392.3687,292.125 392.3687,282.125 L392.3687,256.125" fill="#E2E2F0" style="stroke:#181818;stroke-width:1.5;"/><path d="M392.3687,256.125 C392.3687,266.125 410.3687,266.125 410.3687,266.125 C410.3687,266.125 428.3687,266.125 428.3687,256.125" fill="none" style="stroke:#181818;stroke-width:1.5;"/></g><g class="message" data-participant-1="Controller" data-participant-2="Terminal"><polygon fill="#181818" points="198.8433,108.4297,208.8433,112.4297,198.8433,116.4297,202.8433,112.4297" style="stroke:#181818;stroke-width:1;"/><line style="stroke:#181818;stroke-width:1;" x1="42.5864" x2="204.8433" y1="112.4297" y2="112.4297"/><text fill="#000000" font-family="sans-serif" font-size="13" lengthAdjust="spacing" textLength="55.0024" x="49.5864" y="107.3638">Scan QR</text></g><g class="message" data-participant-1="Terminal" data-participant-2="Terminal"><line style="stroke:#181818;stroke-width:1;" x1="210.8433" x2="252.8433" y1="141.5625" y2="141.5625"/><line style="stroke:#181818;stroke-width:1;" x1="252.8433" x2="252.8433" y1="141.5625" y2="154.5625"/><line style="stroke:#181818;stroke-width:1;" x1="211.8433" x2="252.8433" y1="154.5625" y2="154.5625"/><polygon fill="#181818" points="221.8433,150.5625,211.8433,154.5625,221.8433,158.5625,217.8433,154.5625" style="stroke:#181818;stroke-width:1;"/><text fill="#000000" font-family="sans-serif" font-size="13" lengthAdjust="spacing" textLength="126.8008" x="217.8433" y="136.4966">Check QR structure</text></g><g class="message" data-participant-1="Terminal" data-participant-2="LS"><polygon fill="#181818" points="398.3687,179.6953,408.3687,183.6953,398.3687,187.6953,402.3687,183.6953" style="stroke:#181818;stroke-width:1;"/><line style="stroke:#181818;stroke-width:1;" x1="210.8433" x2="404.3687" y1="183.6953" y2="183.6953"/><text fill="#000000" font-family="sans-serif" font-size="13" lengthAdjust="spacing" textLength="175.5254" x="217.8433" y="178.6294">savePreValidation(ticketId)</text></g><g class="message" data-participant-1="Terminal" data-participant-2="Controller"><polygon fill="#181818" points="53.5864,208.8281,43.5864,212.8281,53.5864,216.8281,49.5864,212.8281" style="stroke:#181818;stroke-width:1;"/><line style="stroke:#181818;stroke-width:1;stroke-dasharray:2.0,2.0;" x1="47.5864" x2="209.8433" y1="212.8281" y2="212.8281"/><text fill="#000000" font-family="sans-serif" font-size="13" lengthAdjust="spacing" textLength="144.2568" x="59.5864" y="207.7622">"Pr&#233;-validation locale"</text></g><!--SRC=[LOun3i8m40Hxl-Ba2efy80LDAYGN0KVqXtC2AyQEpfVyYNVmCKnZadPtHXfqaXYw58LJ2CHgHXRl_8nHO21- -OX1ZIXunqoWJN8Om1O97wG1CnYhrD-7vbGrQC4wZ72vgZhjx-v9RYe_PE75oSAq8uqjJCQLUgOR1byoV8g7qZUHdCVZ1Yxq9g85tVFdtQnLWl0B9_q5]--></g></svg>