<svg xmlns="http://www.w3.org/2000/svg" xmlns:xlink="http://www.w3.org/1999/xlink" contentStyleType="text/css" data-diagram-type="ACTIVITY" height="851px" preserveAspectRatio="none" style="width:655px;height:851px;background:#FFFFFF;" version="1.1" viewBox="0 0 655 851" width="655px" zoomAndPan="magnify"><title>Activity Diagram (ticket purchase)</title><defs/><g><g class="title" data-source-line="1"><text fill="#000000" font-family="sans-serif" font-size="14" font-weight="bold" lengthAdjust="spacing" textLength="272.3369" x="189.9067" y="32.9951">Activity Diagram (ticket purchase)</text></g><ellipse cx="446.2375" cy="57.2969" fill="#222222" rx="10" ry="10" style="stroke:#222222;stroke-width:1;"/><rect fill="#F1F1F1" height="33.9688" rx="12.5" ry="12.5" style="stroke:#181818;stroke-width:0.5;" width="219.4941" x="336.4905" y="87.2969"/><text fill="#000000" font-family="sans-serif" font-size="12" lengthAdjust="spacing" textLength="199.4941" x="346.4905" y="108.4355">User searches for a route (A → B)</text><rect fill="#F1F1F1" height="33.9688" rx="12.5" ry="12.5" style="stroke:#181818;stroke-width:0.5;" width="152.8672" x="369.804" y="141.2656"/><text fill="#000000" font-family="sans-serif" font-size="12" lengthAdjust="spacing" textLength="132.8672" x="379.804" y="162.4043">Display available trips</text><polygon fill="#F1F1F1" points="407.7134,195.2344,484.7617,195.2344,496.7617,207.2344,484.7617,219.2344,407.7134,219.2344,395.7134,207.2344,407.7134,195.2344" style="stroke:#181818;stroke-width:0.5;"/><text fill="#000000" font-family="sans-serif" font-size="11" lengthAdjust="spacing" textLength="77.0483" x="407.7134" y="211.0425">Trip selected?</text><text fill="#000000" font-family="sans-serif" font-size="11" lengthAdjust="spacing" textLength="19.0083" x="376.7051" y="204.6401">yes</text><text fill="#000000" font-family="sans-serif" font-size="11" lengthAdjust="spacing" textLength="13.7017" x="496.7617" y="204.6401">no</text><rect fill="#F1F1F1" height="33.9688" rx="12.5" ry="12.5" style="stroke:#181818;stroke-width:0.5;" width="155.4922" x="231.6196" y="229.2344"/><text fill="#000000" font-family="sans-serif" font-size="12" lengthAdjust="spacing" textLength="135.4922" x="241.6196" y="250.373">Check seat availability</text><polygon fill="#F1F1F1" points="264.6057,283.2031,354.1257,283.2031,366.1257,295.2031,354.1257,307.2031,264.6057,307.2031,252.6057,295.2031,264.6057,283.2031" style="stroke:#181818;stroke-width:0.5;"/><text fill="#000000" font-family="sans-serif" font-size="11" lengthAdjust="spacing" textLength="89.52" x="264.6057" y="299.0112">Seats available?</text><text fill="#000000" font-family="sans-serif" font-size="11" lengthAdjust="spacing" textLength="19.0083" x="233.5974" y="292.6089">yes</text><text fill="#000000" font-family="sans-serif" font-size="11" lengthAdjust="spacing" textLength="13.7017" x="366.1257" y="292.6089">no</text><rect fill="#F1F1F1" height="33.9688" rx="12.5" ry="12.5" style="stroke:#181818;stroke-width:0.5;" width="126.6699" x="128.3564" y="317.2031"/><text fill="#000000" font-family="sans-serif" font-size="12" lengthAdjust="spacing" textLength="106.6699" x="138.3564" y="338.3418">Confirm purchase</text><rect fill="#F1F1F1" height="33.9688" rx="12.5" ry="12.5" style="stroke:#181818;stroke-width:0.5;" width="130.291" x="126.5459" y="371.1719"/><text fill="#000000" font-family="sans-serif" font-size="12" lengthAdjust="spacing" textLength="110.291" x="136.5459" y="392.3105">Simulate payment</text><polygon fill="#F1F1F1" points="134.2341,425.1406,249.1487,425.1406,261.1487,437.1406,249.1487,449.1406,134.2341,449.1406,122.2341,437.1406,134.2341,425.1406" style="stroke:#181818;stroke-width:0.5;"/><text fill="#000000" font-family="sans-serif" font-size="11" lengthAdjust="spacing" textLength="114.9146" x="134.2341" y="440.9487">Payment successful?</text><text fill="#000000" font-family="sans-serif" font-size="11" lengthAdjust="spacing" textLength="19.0083" x="103.2258" y="434.5464">yes</text><text fill="#000000" font-family="sans-serif" font-size="11" lengthAdjust="spacing" textLength="13.7017" x="261.1487" y="434.5464">no</text><rect fill="#F1F1F1" height="33.9688" rx="12.5" ry="12.5" style="stroke:#181818;stroke-width:0.5;" width="157.0566" x="27.9102" y="459.1406"/><text fill="#000000" font-family="sans-serif" font-size="12" lengthAdjust="spacing" textLength="137.0566" x="37.9102" y="480.2793">Generate ticket (UUID)</text><rect fill="#F1F1F1" height="33.9688" rx="12.5" ry="12.5" style="stroke:#181818;stroke-width:0.5;" width="132.1777" x="40.3496" y="513.1094"/><text fill="#000000" font-family="sans-serif" font-size="12" lengthAdjust="spacing" textLength="112.1777" x="50.3496" y="534.248">Generate QR Code</text><rect fill="#F1F1F1" height="33.9688" rx="12.5" ry="12.5" style="stroke:#181818;stroke-width:0.5;" width="163.6719" x="24.6025" y="567.0781"/><text fill="#000000" font-family="sans-serif" font-size="12" lengthAdjust="spacing" textLength="143.6719" x="34.6025" y="588.2168">Store ticket in database</text><rect fill="#F1F1F1" height="33.9688" rx="12.5" ry="12.5" style="stroke:#181818;stroke-width:0.5;" width="160.7656" x="26.0557" y="621.0469"/><text fill="#000000" font-family="sans-serif" font-size="12" lengthAdjust="spacing" textLength="140.7656" x="36.0557" y="642.1855">Associate ticket to user</text><rect fill="#F1F1F1" height="33.9688" rx="12.5" ry="12.5" style="stroke:#181818;stroke-width:0.5;" width="190.877" x="11" y="675.0156"/><text fill="#000000" font-family="sans-serif" font-size="12" lengthAdjust="spacing" textLength="170.877" x="21" y="696.1543">Send notification to the user</text><rect fill="#F1F1F1" height="33.9688" rx="12.5" ry="12.5" style="stroke:#181818;stroke-width:0.5;" width="110.1348" x="221.877" y="459.1406"/><text fill="#000000" font-family="sans-serif" font-size="12" lengthAdjust="spacing" textLength="90.1348" x="231.877" y="480.2793">Payment failed</text><polygon fill="#F1F1F1" points="191.6914,714.9844,203.6914,726.9844,191.6914,738.9844,179.6914,726.9844,191.6914,714.9844" style="stroke:#181818;stroke-width:0.5;"/><rect fill="#F1F1F1" height="33.9688" rx="12.5" ry="12.5" style="stroke:#181818;stroke-width:0.5;" width="130.0566" x="362.0117" y="317.2031"/><text fill="#000000" font-family="sans-serif" font-size="12" lengthAdjust="spacing" textLength="110.0566" x="372.0117" y="338.3418">No seats available</text><polygon fill="#F1F1F1" points="309.3657,744.9844,321.3657,756.9844,309.3657,768.9844,297.3657,756.9844,309.3657,744.9844" style="stroke:#181818;stroke-width:0.5;"/><rect fill="#F1F1F1" height="33.9688" rx="12.5" ry="12.5" style="stroke:#181818;stroke-width:0.5;" width="122.082" x="522.0684" y="229.2344"/><text fill="#000000" font-family="sans-serif" font-size="12" lengthAdjust="spacing" textLength="102.082" x="532.0684" y="250.373">Cancel operation</text><polygon fill="#F1F1F1" points="446.2375,774.9844,458.2375,786.9844,446.2375,798.9844,434.2375,786.9844,446.2375,774.9844" style="stroke:#181818;stroke-width:0.5;"/><ellipse cx="446.2375" cy="829.9844" fill="none" rx="11" ry="11" style="stroke:#222222;stroke-width:1;"/><ellipse cx="446.2375" cy="829.9844" fill="#222222" rx="6" ry="6" style="stroke:#222222;stroke-width:1;"/><line style="stroke:#181818;stroke-width:1;" x1="446.2375" x2="446.2375" y1="67.2969" y2="87.2969"/><polygon fill="#181818" points="442.2375,77.2969,446.2375,87.2969,450.2375,77.2969,446.2375,81.2969" style="stroke:#181818;stroke-width:1;"/><line style="stroke:#181818;stroke-width:1;" x1="446.2375" x2="446.2375" y1="121.2656" y2="141.2656"/><polygon fill="#181818" points="442.2375,131.2656,446.2375,141.2656,450.2375,131.2656,446.2375,135.2656" style="stroke:#181818;stroke-width:1;"/><line style="stroke:#181818;stroke-width:1;" x1="191.6914" x2="191.6914" y1="351.1719" y2="371.1719"/><polygon fill="#181818" points="187.6914,361.1719,191.6914,371.1719,195.6914,361.1719,191.6914,365.1719" style="stroke:#181818;stroke-width:1;"/><line style="stroke:#181818;stroke-width:1;" x1="106.4385" x2="106.4385" y1="493.1094" y2="513.1094"/><polygon fill="#181818" points="102.4385,503.1094,106.4385,513.1094,110.4385,503.1094,106.4385,507.1094" style="stroke:#181818;stroke-width:1;"/><line style="stroke:#181818;stroke-width:1;" x1="106.4385" x2="106.4385" y1="547.0781" y2="567.0781"/><polygon fill="#181818" points="102.4385,557.0781,106.4385,567.0781,110.4385,557.0781,106.4385,561.0781" style="stroke:#181818;stroke-width:1;"/><line style="stroke:#181818;stroke-width:1;" x1="106.4385" x2="106.4385" y1="601.0469" y2="621.0469"/><polygon fill="#181818" points="102.4385,611.0469,106.4385,621.0469,110.4385,611.0469,106.4385,615.0469" style="stroke:#181818;stroke-width:1;"/><line style="stroke:#181818;stroke-width:1;" x1="106.4385" x2="106.4385" y1="655.0156" y2="675.0156"/><polygon fill="#181818" points="102.4385,665.0156,106.4385,675.0156,110.4385,665.0156,106.4385,669.0156" style="stroke:#181818;stroke-width:1;"/><line style="stroke:#181818;stroke-width:1;" x1="122.2341" x2="106.4385" y1="437.1406" y2="437.1406"/><line style="stroke:#181818;stroke-width:1;" x1="106.4385" x2="106.4385" y1="437.1406" y2="459.1406"/><polygon fill="#181818" points="102.4385,449.1406,106.4385,459.1406,110.4385,449.1406,106.4385,453.1406" style="stroke:#181818;stroke-width:1;"/><line style="stroke:#181818;stroke-width:1;" x1="261.1487" x2="276.9443" y1="437.1406" y2="437.1406"/><line style="stroke:#181818;stroke-width:1;" x1="276.9443" x2="276.9443" y1="437.1406" y2="459.1406"/><polygon fill="#181818" points="272.9443,449.1406,276.9443,459.1406,280.9443,449.1406,276.9443,453.1406" style="stroke:#181818;stroke-width:1;"/><line style="stroke:#181818;stroke-width:1;" x1="106.4385" x2="106.4385" y1="708.9844" y2="726.9844"/><line style="stroke:#181818;stroke-width:1;" x1="106.4385" x2="179.6914" y1="726.9844" y2="726.9844"/><polygon fill="#181818" points="169.6914,722.9844,179.6914,726.9844,169.6914,730.9844,173.6914,726.9844" style="stroke:#181818;stroke-width:1;"/><line style="stroke:#181818;stroke-width:1;" x1="276.9443" x2="276.9443" y1="493.1094" y2="726.9844"/><line style="stroke:#181818;stroke-width:1;" x1="276.9443" x2="203.6914" y1="726.9844" y2="726.9844"/><polygon fill="#181818" points="213.6914,722.9844,203.6914,726.9844,213.6914,730.9844,209.6914,726.9844" style="stroke:#181818;stroke-width:1;"/><line style="stroke:#181818;stroke-width:1;" x1="191.6914" x2="191.6914" y1="405.1406" y2="425.1406"/><polygon fill="#181818" points="187.6914,415.1406,191.6914,425.1406,195.6914,415.1406,191.6914,419.1406" style="stroke:#181818;stroke-width:1;"/><line style="stroke:#181818;stroke-width:1;" x1="252.6057" x2="191.6914" y1="295.2031" y2="295.2031"/><line style="stroke:#181818;stroke-width:1;" x1="191.6914" x2="191.6914" y1="295.2031" y2="317.2031"/><polygon fill="#181818" points="187.6914,307.2031,191.6914,317.2031,195.6914,307.2031,191.6914,311.2031" style="stroke:#181818;stroke-width:1;"/><line style="stroke:#181818;stroke-width:1;" x1="366.1257" x2="427.04" y1="295.2031" y2="295.2031"/><line style="stroke:#181818;stroke-width:1;" x1="427.04" x2="427.04" y1="295.2031" y2="317.2031"/><polygon fill="#181818" points="423.04,307.2031,427.04,317.2031,431.04,307.2031,427.04,311.2031" style="stroke:#181818;stroke-width:1;"/><line style="stroke:#181818;stroke-width:1;" x1="191.6914" x2="191.6914" y1="738.9844" y2="756.9844"/><line style="stroke:#181818;stroke-width:1;" x1="191.6914" x2="297.3657" y1="756.9844" y2="756.9844"/><polygon fill="#181818" points="287.3657,752.9844,297.3657,756.9844,287.3657,760.9844,291.3657,756.9844" style="stroke:#181818;stroke-width:1;"/><line style="stroke:#181818;stroke-width:1;" x1="427.04" x2="427.04" y1="351.1719" y2="756.9844"/><line style="stroke:#181818;stroke-width:1;" x1="427.04" x2="321.3657" y1="756.9844" y2="756.9844"/><polygon fill="#181818" points="331.3657,752.9844,321.3657,756.9844,331.3657,760.9844,327.3657,756.9844" style="stroke:#181818;stroke-width:1;"/><line style="stroke:#181818;stroke-width:1;" x1="309.3657" x2="309.3657" y1="263.2031" y2="283.2031"/><polygon fill="#181818" points="305.3657,273.2031,309.3657,283.2031,313.3657,273.2031,309.3657,277.2031" style="stroke:#181818;stroke-width:1;"/><line style="stroke:#181818;stroke-width:1;" x1="395.7134" x2="309.3657" y1="207.2344" y2="207.2344"/><line style="stroke:#181818;stroke-width:1;" x1="309.3657" x2="309.3657" y1="207.2344" y2="229.2344"/><polygon fill="#181818" points="305.3657,219.2344,309.3657,229.2344,313.3657,219.2344,309.3657,223.2344" style="stroke:#181818;stroke-width:1;"/><line style="stroke:#181818;stroke-width:1;" x1="496.7617" x2="583.1094" y1="207.2344" y2="207.2344"/><line style="stroke:#181818;stroke-width:1;" x1="583.1094" x2="583.1094" y1="207.2344" y2="229.2344"/><polygon fill="#181818" points="579.1094,219.2344,583.1094,229.2344,587.1094,219.2344,583.1094,223.2344" style="stroke:#181818;stroke-width:1;"/><line style="stroke:#181818;stroke-width:1;" x1="309.3657" x2="309.3657" y1="768.9844" y2="786.9844"/><line style="stroke:#181818;stroke-width:1;" x1="309.3657" x2="434.2375" y1="786.9844" y2="786.9844"/><polygon fill="#181818" points="424.2375,782.9844,434.2375,786.9844,424.2375,790.9844,428.2375,786.9844" style="stroke:#181818;stroke-width:1;"/><line style="stroke:#181818;stroke-width:1;" x1="583.1094" x2="583.1094" y1="263.2031" y2="786.9844"/><line style="stroke:#181818;stroke-width:1;" x1="583.1094" x2="458.2375" y1="786.9844" y2="786.9844"/><polygon fill="#181818" points="468.2375,782.9844,458.2375,786.9844,468.2375,790.9844,464.2375,786.9844" style="stroke:#181818;stroke-width:1;"/><line style="stroke:#181818;stroke-width:1;" x1="446.2375" x2="446.2375" y1="175.2344" y2="195.2344"/><polygon fill="#181818" points="442.2375,185.2344,446.2375,195.2344,450.2375,185.2344,446.2375,189.2344" style="stroke:#181818;stroke-width:1;"/><line style="stroke:#181818;stroke-width:1;" x1="446.2375" x2="446.2375" y1="798.9844" y2="818.9844"/><polygon fill="#181818" points="442.2375,808.9844,446.2375,818.9844,450.2375,808.9844,446.2375,812.9844" style="stroke:#181818;stroke-width:1;"/><!--SRC=[TP5DReD038NtdC9BSWLOL6aYLTrKRTCSm1bCOsMOGMCJYGlq03rYJr8Jo6zJLeZttlUChQoUOEwKzwmzB1a_4pQGAxiTARHTSbiKccMPA2RDic8jb408JI21EYP0IB5JWdmEFr_Vy3WhpRPaQJtsW7jaZnihqSIjcCGrv1_sRX1FJgbwc85kAK3UarWHs5CijkHsGuqU2Unjm7AK1yJAD3dZxq16K0mrf-Rq9-M5jkAcysYJjzWt5FH26nfUnwyWdNCaKdV-dv83x8a2fG4shIvVhv-NjehxfhTtMCIARkILndG2S80A5JU7eQziSv7e-A9B8tHsbbiQXGf2LAxPeN8CWy_cdxmdCtcnuuKukuuVVx-s3LDrPXkLwp7zDrcynCFLBYup9gVKTQ9OO73a8RR3Lcp2Cfjyeh7z1G00]--></g></svg>