<svg xmlns="http://www.w3.org/2000/svg" xmlns:xlink="http://www.w3.org/1999/xlink" contentStyleType="text/css" data-diagram-type="CLASS" height="599px" preserveAspectRatio="none" style="width:665px;height:599px;background:#FFFFFF;" version="1.1" viewBox="0 0 665 599" width="665px" zoomAndPan="magnify"><defs/><g><!--class User--><g class="entity" data-entity="User" data-source-line="1" data-uid="ent0002" id="entity_User"><rect fill="#F1F1F1" height="96.8906" rx="2.5" ry="2.5" style="stroke:#181818;stroke-width:0.5;" width="111.333" x="197.5" y="148"/><ellipse cx="233.8403" cy="164" fill="#ADD1B2" rx="11" ry="11" style="stroke:#181818;stroke-width:1;"/><path d="M236.809,169.6406 Q236.2309,169.9375 235.5903,170.0781 Q234.9497,170.2344 234.2465,170.2344 Q231.7465,170.2344 230.4184,168.5938 Q229.1059,166.9375 229.1059,163.8125 Q229.1059,160.6875 230.4184,159.0313 Q231.7465,157.375 234.2465,157.375 Q234.9497,157.375 235.5903,157.5313 Q236.2465,157.6875 236.809,157.9844 L236.809,160.7031 Q236.184,160.125 235.5903,159.8594 Q234.9965,159.5781 234.3715,159.5781 Q233.0278,159.5781 232.3403,160.6563 Q231.6528,161.7188 231.6528,163.8125 Q231.6528,165.9063 232.3403,166.9844 Q233.0278,168.0469 234.3715,168.0469 Q234.9965,168.0469 235.5903,167.7813 Q236.184,167.5 236.809,166.9219 L236.809,169.6406 Z " fill="#000000"/><text fill="#000000" font-family="sans-serif" font-size="14" lengthAdjust="spacing" textLength="31.9102" x="252.5826" y="168.8467">User</text><line style="stroke:#181818;stroke-width:0.5;" x1="198.5" x2="307.833" y1="180" y2="180"/><text fill="#000000" font-family="sans-serif" font-size="14" lengthAdjust="spacing" textLength="99.333" x="203.5" y="196.9951">user_id : UUID</text><text fill="#000000" font-family="sans-serif" font-size="14" lengthAdjust="spacing" textLength="93.5088" x="203.5" y="213.292">name : string</text><text fill="#000000" font-family="sans-serif" font-size="14" lengthAdjust="spacing" textLength="87.9648" x="203.5" y="229.5889">email :string</text><line style="stroke:#181818;stroke-width:0.5;" x1="198.5" x2="307.833" y1="236.8906" y2="236.8906"/></g><!--class Controller--><g class="entity" data-entity="Controller" data-source-line="7" data-uid="ent0003" id="entity_Controller"><rect fill="#F1F1F1" height="64.2969" rx="2.5" ry="2.5" style="stroke:#181818;stroke-width:0.5;" width="147.8916" x="7" y="7"/><ellipse cx="43.0234" cy="23" fill="#ADD1B2" rx="11" ry="11" style="stroke:#181818;stroke-width:1;"/><path d="M45.9922,28.6406 Q45.4141,28.9375 44.7734,29.0781 Q44.1328,29.2344 43.4297,29.2344 Q40.9297,29.2344 39.6016,27.5938 Q38.2891,25.9375 38.2891,22.8125 Q38.2891,19.6875 39.6016,18.0313 Q40.9297,16.375 43.4297,16.375 Q44.1328,16.375 44.7734,16.5313 Q45.4297,16.6875 45.9922,16.9844 L45.9922,19.7031 Q45.3672,19.125 44.7734,18.8594 Q44.1797,18.5781 43.5547,18.5781 Q42.2109,18.5781 41.5234,19.6563 Q40.8359,20.7188 40.8359,22.8125 Q40.8359,24.9063 41.5234,25.9844 Q42.2109,27.0469 43.5547,27.0469 Q44.1797,27.0469 44.7734,26.7813 Q45.3672,26.5 45.9922,25.9219 L45.9922,28.6406 Z " fill="#000000"/><text fill="#000000" font-family="sans-serif" font-size="14" lengthAdjust="spacing" textLength="69.1729" x="61.6953" y="27.8467">Controller</text><line style="stroke:#181818;stroke-width:0.5;" x1="8" x2="153.8916" y1="39" y2="39"/><text fill="#000000" font-family="sans-serif" font-size="14" lengthAdjust="spacing" textLength="135.8916" x="13" y="55.9951">controller_id : UUID</text><line style="stroke:#181818;stroke-width:0.5;" x1="8" x2="153.8916" y1="63.2969" y2="63.2969"/></g><!--class Admin--><g class="entity" data-entity="Admin" data-source-line="11" data-uid="ent0004" id="entity_Admin"><rect fill="#F1F1F1" height="64.2969" rx="2.5" ry="2.5" style="stroke:#181818;stroke-width:0.5;" width="124.6631" x="190.5" y="7"/><ellipse cx="227.0095" cy="23" fill="#ADD1B2" rx="11" ry="11" style="stroke:#181818;stroke-width:1;"/><path d="M229.9782,28.6406 Q229.4001,28.9375 228.7595,29.0781 Q228.1188,29.2344 227.4157,29.2344 Q224.9157,29.2344 223.5876,27.5938 Q222.2751,25.9375 222.2751,22.8125 Q222.2751,19.6875 223.5876,18.0313 Q224.9157,16.375 227.4157,16.375 Q228.1188,16.375 228.7595,16.5313 Q229.4157,16.6875 229.9782,16.9844 L229.9782,19.7031 Q229.3532,19.125 228.7595,18.8594 Q228.1657,18.5781 227.5407,18.5781 Q226.197,18.5781 225.5095,19.6563 Q224.822,20.7188 224.822,22.8125 Q224.822,24.9063 225.5095,25.9844 Q226.197,27.0469 227.5407,27.0469 Q228.1657,27.0469 228.7595,26.7813 Q229.3532,26.5 229.9782,25.9219 L229.9782,28.6406 Z " fill="#000000"/><text fill="#000000" font-family="sans-serif" font-size="14" lengthAdjust="spacing" textLength="44.8643" x="245.7894" y="27.8467">Admin</text><line style="stroke:#181818;stroke-width:0.5;" x1="191.5" x2="314.1631" y1="39" y2="39"/><text fill="#000000" font-family="sans-serif" font-size="14" lengthAdjust="spacing" textLength="112.6631" x="196.5" y="55.9951">admin_id : UUID</text><line style="stroke:#181818;stroke-width:0.5;" x1="191.5" x2="314.1631" y1="63.2969" y2="63.2969"/></g><!--class Ticket--><g class="entity" data-entity="Ticket" data-source-line="15" data-uid="ent0005" id="entity_Ticket"><rect fill="#F1F1F1" height="96.8906" rx="2.5" ry="2.5" style="stroke:#181818;stroke-width:0.5;" width="124.6084" x="306.5" y="322"/><ellipse cx="344.1169" cy="338" fill="#ADD1B2" rx="11" ry="11" style="stroke:#181818;stroke-width:1;"/><path d="M347.0856,343.6406 Q346.5075,343.9375 345.8669,344.0781 Q345.2263,344.2344 344.5231,344.2344 Q342.0231,344.2344 340.695,342.5938 Q339.3825,340.9375 339.3825,337.8125 Q339.3825,334.6875 340.695,333.0313 Q342.0231,331.375 344.5231,331.375 Q345.2263,331.375 345.8669,331.5313 Q346.5231,331.6875 347.0856,331.9844 L347.0856,334.7031 Q346.4606,334.125 345.8669,333.8594 Q345.2731,333.5781 344.6481,333.5781 Q343.3044,333.5781 342.6169,334.6563 Q341.9294,335.7188 341.9294,337.8125 Q341.9294,339.9063 342.6169,340.9844 Q343.3044,342.0469 344.6481,342.0469 Q345.2731,342.0469 345.8669,341.7813 Q346.4606,341.5 347.0856,340.9219 L347.0856,343.6406 Z " fill="#000000"/><text fill="#000000" font-family="sans-serif" font-size="14" lengthAdjust="spacing" textLength="42.3486" x="363.1429" y="342.8467">Ticket</text><line style="stroke:#181818;stroke-width:0.5;" x1="307.5" x2="430.1084" y1="354" y2="354"/><text fill="#000000" font-family="sans-serif" font-size="14" lengthAdjust="spacing" textLength="108.083" x="312.5" y="370.9951">ticket_id : UUID</text><text fill="#000000" font-family="sans-serif" font-size="14" lengthAdjust="spacing" textLength="112.6084" x="312.5" y="387.292">status : boolean</text><text fill="#000000" font-family="sans-serif" font-size="14" lengthAdjust="spacing" textLength="89.7695" x="312.5" y="403.5889">qr_code : QR</text><line style="stroke:#181818;stroke-width:0.5;" x1="307.5" x2="430.1084" y1="410.8906" y2="410.8906"/></g><!--class Trip--><g class="entity" data-entity="Trip" data-source-line="21" data-uid="ent0006" id="entity_Trip"><rect fill="#F1F1F1" height="96.8906" rx="2.5" ry="2.5" style="stroke:#181818;stroke-width:0.5;" width="143.25" x="297.5" y="496"/><ellipse cx="351.333" cy="512" fill="#ADD1B2" rx="11" ry="11" style="stroke:#181818;stroke-width:1;"/><path d="M354.3018,517.6406 Q353.7236,517.9375 353.083,518.0781 Q352.4424,518.2344 351.7393,518.2344 Q349.2393,518.2344 347.9111,516.5938 Q346.5986,514.9375 346.5986,511.8125 Q346.5986,508.6875 347.9111,507.0313 Q349.2393,505.375 351.7393,505.375 Q352.4424,505.375 353.083,505.5313 Q353.7393,505.6875 354.3018,505.9844 L354.3018,508.7031 Q353.6768,508.125 353.083,507.8594 Q352.4893,507.5781 351.8643,507.5781 Q350.5205,507.5781 349.833,508.6563 Q349.1455,509.7188 349.1455,511.8125 Q349.1455,513.9063 349.833,514.9844 Q350.5205,516.0469 351.8643,516.0469 Q352.4893,516.0469 353.083,515.7813 Q353.6768,515.5 354.3018,514.9219 L354.3018,517.6406 Z " fill="#000000"/><text fill="#000000" font-family="sans-serif" font-size="14" lengthAdjust="spacing" textLength="27.084" x="371.833" y="516.8467">Trip</text><line style="stroke:#181818;stroke-width:0.5;" x1="298.5" x2="439.75" y1="528" y2="528"/><text fill="#000000" font-family="sans-serif" font-size="14" lengthAdjust="spacing" textLength="92.8184" x="303.5" y="544.9951">trip_id : UUID</text><text fill="#000000" font-family="sans-serif" font-size="14" lengthAdjust="spacing" textLength="131.25" x="303.5" y="561.292">departure : station</text><text fill="#000000" font-family="sans-serif" font-size="14" lengthAdjust="spacing" textLength="89.9199" x="303.5" y="577.5889">arrival : date</text><line style="stroke:#181818;stroke-width:0.5;" x1="298.5" x2="439.75" y1="584.8906" y2="584.8906"/></g><!--class Validation--><g class="entity" data-entity="Validation" data-source-line="27" data-uid="ent0007" id="entity_Validation"><rect fill="#F1F1F1" height="80.5938" rx="2.5" ry="2.5" style="stroke:#181818;stroke-width:0.5;" width="149.7236" x="50" y="504"/><ellipse cx="86.3772" cy="520" fill="#ADD1B2" rx="11" ry="11" style="stroke:#181818;stroke-width:1;"/><path d="M89.3459,525.6406 Q88.7678,525.9375 88.1272,526.0781 Q87.4866,526.2344 86.7834,526.2344 Q84.2834,526.2344 82.9553,524.5938 Q81.6428,522.9375 81.6428,519.8125 Q81.6428,516.6875 82.9553,515.0313 Q84.2834,513.375 86.7834,513.375 Q87.4866,513.375 88.1272,513.5313 Q88.7834,513.6875 89.3459,513.9844 L89.3459,516.7031 Q88.7209,516.125 88.1272,515.8594 Q87.5334,515.5781 86.9084,515.5781 Q85.5647,515.5781 84.8772,516.6563 Q84.1897,517.7188 84.1897,519.8125 Q84.1897,521.9063 84.8772,522.9844 Q85.5647,524.0469 86.9084,524.0469 Q87.5334,524.0469 88.1272,523.7813 Q88.7209,523.5 89.3459,522.9219 L89.3459,525.6406 Z " fill="#000000"/><text fill="#000000" font-family="sans-serif" font-size="14" lengthAdjust="spacing" textLength="70.2188" x="105.1277" y="524.8467">Validation</text><line style="stroke:#181818;stroke-width:0.5;" x1="51" x2="198.7236" y1="536" y2="536"/><text fill="#000000" font-family="sans-serif" font-size="14" lengthAdjust="spacing" textLength="137.7236" x="56" y="552.9951">validation_id : UUID</text><text fill="#000000" font-family="sans-serif" font-size="14" lengthAdjust="spacing" textLength="120.7021" x="56" y="569.292">timestamp : date</text><line style="stroke:#181818;stroke-width:0.5;" x1="51" x2="198.7236" y1="576.5938" y2="576.5938"/></g><!--class Notification--><g class="entity" data-entity="Notification" data-source-line="32" data-uid="ent0008" id="entity_Notification"><rect fill="#F1F1F1" height="64.2969" rx="2.5" ry="2.5" style="stroke:#181818;stroke-width:0.5;" width="120.3496" x="351" y="7"/><ellipse cx="369.6092" cy="23" fill="#ADD1B2" rx="11" ry="11" style="stroke:#181818;stroke-width:1;"/><path d="M372.578,28.6406 Q371.9999,28.9375 371.3592,29.0781 Q370.7186,29.2344 370.0155,29.2344 Q367.5155,29.2344 366.1874,27.5938 Q364.8749,25.9375 364.8749,22.8125 Q364.8749,19.6875 366.1874,18.0313 Q367.5155,16.375 370.0155,16.375 Q370.7186,16.375 371.3592,16.5313 Q372.0155,16.6875 372.578,16.9844 L372.578,19.7031 Q371.953,19.125 371.3592,18.8594 Q370.7655,18.5781 370.1405,18.5781 Q368.7967,18.5781 368.1092,19.6563 Q367.4217,20.7188 367.4217,22.8125 Q367.4217,24.9063 368.1092,25.9844 Q368.7967,27.0469 370.1405,27.0469 Q370.7655,27.0469 371.3592,26.7813 Q371.953,26.5 372.578,25.9219 L372.578,28.6406 Z " fill="#000000"/><text fill="#000000" font-family="sans-serif" font-size="14" lengthAdjust="spacing" textLength="80.3291" x="384.4113" y="27.8467">Notification</text><line style="stroke:#181818;stroke-width:0.5;" x1="352" x2="470.3496" y1="39" y2="39"/><text fill="#000000" font-family="sans-serif" font-size="14" lengthAdjust="spacing" textLength="108.3496" x="357" y="55.9951">message : MSG</text><line style="stroke:#181818;stroke-width:0.5;" x1="352" x2="470.3496" y1="63.2969" y2="63.2969"/></g><!--class TicketService--><g class="entity" data-entity="TicketService" data-source-line="36" data-uid="ent0009" id="entity_TicketService"><rect fill="#F1F1F1" height="48" rx="2.5" ry="2.5" style="stroke:#181818;stroke-width:0.5;" width="126.0898" x="344" y="172.5"/><ellipse cx="359" cy="188.5" fill="#ADD1B2" rx="11" ry="11" style="stroke:#181818;stroke-width:1;"/><path d="M361.9688,194.1406 Q361.3906,194.4375 360.75,194.5781 Q360.1094,194.7344 359.4063,194.7344 Q356.9063,194.7344 355.5781,193.0938 Q354.2656,191.4375 354.2656,188.3125 Q354.2656,185.1875 355.5781,183.5313 Q356.9063,181.875 359.4063,181.875 Q360.1094,181.875 360.75,182.0313 Q361.4063,182.1875 361.9688,182.4844 L361.9688,185.2031 Q361.3438,184.625 360.75,184.3594 Q360.1563,184.0781 359.5313,184.0781 Q358.1875,184.0781 357.5,185.1563 Q356.8125,186.2188 356.8125,188.3125 Q356.8125,190.4063 357.5,191.4844 Q358.1875,192.5469 359.5313,192.5469 Q360.1563,192.5469 360.75,192.2813 Q361.3438,192 361.9688,191.4219 L361.9688,194.1406 Z " fill="#000000"/><text fill="#000000" font-family="sans-serif" font-size="14" lengthAdjust="spacing" textLength="94.0898" x="373" y="193.3467">TicketService</text><line style="stroke:#181818;stroke-width:0.5;" x1="345" x2="469.0898" y1="204.5" y2="204.5"/><line style="stroke:#181818;stroke-width:0.5;" x1="345" x2="469.0898" y1="212.5" y2="212.5"/></g><!--class ValidationService--><g class="entity" data-entity="ValidationService" data-source-line="37" data-uid="ent0010" id="entity_ValidationService"><rect fill="#F1F1F1" height="48" rx="2.5" ry="2.5" style="stroke:#181818;stroke-width:0.5;" width="153.96" x="505" y="172.5"/><ellipse cx="520" cy="188.5" fill="#ADD1B2" rx="11" ry="11" style="stroke:#181818;stroke-width:1;"/><path d="M522.9688,194.1406 Q522.3906,194.4375 521.75,194.5781 Q521.1094,194.7344 520.4063,194.7344 Q517.9063,194.7344 516.5781,193.0938 Q515.2656,191.4375 515.2656,188.3125 Q515.2656,185.1875 516.5781,183.5313 Q517.9063,181.875 520.4063,181.875 Q521.1094,181.875 521.75,182.0313 Q522.4063,182.1875 522.9688,182.4844 L522.9688,185.2031 Q522.3438,184.625 521.75,184.3594 Q521.1563,184.0781 520.5313,184.0781 Q519.1875,184.0781 518.5,185.1563 Q517.8125,186.2188 517.8125,188.3125 Q517.8125,190.4063 518.5,191.4844 Q519.1875,192.5469 520.5313,192.5469 Q521.1563,192.5469 521.75,192.2813 Q522.3438,192 522.9688,191.4219 L522.9688,194.1406 Z " fill="#000000"/><text fill="#000000" font-family="sans-serif" font-size="14" lengthAdjust="spacing" textLength="121.96" x="534" y="193.3467">ValidationService</text><line style="stroke:#181818;stroke-width:0.5;" x1="506" x2="657.96" y1="204.5" y2="204.5"/><line style="stroke:#181818;stroke-width:0.5;" x1="506" x2="657.96" y1="212.5" y2="212.5"/></g><!--class AuthService--><g class="entity" data-entity="AuthService" data-source-line="38" data-uid="ent0011" id="entity_AuthService"><rect fill="#F1F1F1" height="48" rx="2.5" ry="2.5" style="stroke:#181818;stroke-width:0.5;" width="116.5537" x="506.5" y="15"/><ellipse cx="521.5" cy="31" fill="#ADD1B2" rx="11" ry="11" style="stroke:#181818;stroke-width:1;"/><path d="M524.4688,36.6406 Q523.8906,36.9375 523.25,37.0781 Q522.6094,37.2344 521.9063,37.2344 Q519.4063,37.2344 518.0781,35.5938 Q516.7656,33.9375 516.7656,30.8125 Q516.7656,27.6875 518.0781,26.0313 Q519.4063,24.375 521.9063,24.375 Q522.6094,24.375 523.25,24.5313 Q523.9063,24.6875 524.4688,24.9844 L524.4688,27.7031 Q523.8438,27.125 523.25,26.8594 Q522.6563,26.5781 522.0313,26.5781 Q520.6875,26.5781 520,27.6563 Q519.3125,28.7188 519.3125,30.8125 Q519.3125,32.9063 520,33.9844 Q520.6875,35.0469 522.0313,35.0469 Q522.6563,35.0469 523.25,34.7813 Q523.8438,34.5 524.4688,33.9219 L524.4688,36.6406 Z " fill="#000000"/><text fill="#000000" font-family="sans-serif" font-size="14" lengthAdjust="spacing" textLength="84.5537" x="535.5" y="35.8467">AuthService</text><line style="stroke:#181818;stroke-width:0.5;" x1="507.5" x2="622.0537" y1="47" y2="47"/><line style="stroke:#181818;stroke-width:0.5;" x1="507.5" x2="622.0537" y1="55" y2="55"/></g><!--link User to Ticket--><g class="link" data-entity-1="User" data-entity-2="Ticket" data-source-line="40" data-uid="lnk12" id="link_User_Ticket"><path codeLine="40" d="M285.31,245.41 C301.4,269.27 320.8,298.02 336.86,321.85" fill="none" id="User-Ticket" style="stroke:#181818;stroke-width:1;"/><text fill="#000000" font-family="sans-serif" font-size="13" lengthAdjust="spacing" textLength="33.5981" x="316" y="288.0669">owns</text><text fill="#000000" font-family="sans-serif" font-size="13" lengthAdjust="spacing" textLength="8.271" x="281.11" y="265.0733">1</text><text fill="#000000" font-family="sans-serif" font-size="13" lengthAdjust="spacing" textLength="23.0356" x="307.7532" y="311.0378">0..*</text></g><!--link Ticket to Trip--><g class="link" data-entity-1="Ticket" data-entity-2="Trip" data-source-line="41" data-uid="lnk13" id="link_Ticket_Trip"><path codeLine="41" d="M369,419.41 C369,443.27 369,472.02 369,495.85" fill="none" id="Ticket-Trip" style="stroke:#181818;stroke-width:1;"/><text fill="#000000" font-family="sans-serif" font-size="13" lengthAdjust="spacing" textLength="80.0313" x="370" y="462.0669">corresponds</text><text fill="#000000" font-family="sans-serif" font-size="13" lengthAdjust="spacing" textLength="23.0356" x="344.4834" y="439.0733">0..*</text><text fill="#000000" font-family="sans-serif" font-size="13" lengthAdjust="spacing" textLength="8.271" x="360.439" y="485.0378">1</text></g><!--link Ticket to Validation--><g class="link" data-entity-1="Ticket" data-entity-2="Validation" data-source-line="42" data-uid="lnk14" id="link_Ticket_Validation"><path codeLine="42" d="M306.48,415.57 C267.79,442.84 218.54,477.56 181.11,503.95" fill="none" id="Ticket-Validation" style="stroke:#181818;stroke-width:1;"/><text fill="#000000" font-family="sans-serif" font-size="13" lengthAdjust="spacing" textLength="60.4487" x="256" y="462.0669">validated</text><text fill="#000000" font-family="sans-serif" font-size="13" lengthAdjust="spacing" textLength="8.271" x="290.4133" y="417.2305">1</text><text fill="#000000" font-family="sans-serif" font-size="13" lengthAdjust="spacing" textLength="8.271" x="182.1134" y="492.8046">1</text></g><!--link Controller to Validation--><g class="link" data-entity-1="Controller" data-entity-2="Validation" data-source-line="43" data-uid="lnk15" id="link_Controller_Validation"><path codeLine="43" d="M83.72,71.12 C91.36,158.59 112.5176,400.6428 121.0076,497.7928" fill="none" id="Controller-to-Validation" style="stroke:#181818;stroke-width:1;"/><polygon fill="#181818" points="121.53,503.77,124.7313,494.4559,121.0947,498.789,116.7617,495.1524,121.53,503.77" style="stroke:#181818;stroke-width:1;"/></g><!--link Notification to User--><g class="link" data-entity-1="Notification" data-entity-2="User" data-source-line="44" data-uid="lnk16" id="link_Notification_User"><path codeLine="44" d="M379.41,71.09 C357.07,93.07 326.72,122.95 301.35,147.91" fill="none" id="Notification-User" style="stroke:#181818;stroke-width:1;"/><text fill="#000000" font-family="sans-serif" font-size="13" lengthAdjust="spacing" textLength="47.8613" x="348" y="114.0669">notifies</text><text fill="#000000" font-family="sans-serif" font-size="13" lengthAdjust="spacing" textLength="8.271" x="364.0615" y="91.3054">1</text><text fill="#000000" font-family="sans-serif" font-size="13" lengthAdjust="spacing" textLength="23.0356" x="283.5111" y="137.1063">0..*</text></g><!--link Admin to User--><g class="link" data-entity-1="Admin" data-entity-2="User" data-source-line="45" data-uid="lnk17" id="link_Admin_User"><path codeLine="45" d="M253,71.09 C253,93.07 253,122.95 253,147.91" fill="none" id="Admin-User" style="stroke:#181818;stroke-width:1;"/><text fill="#000000" font-family="sans-serif" font-size="13" lengthAdjust="spacing" textLength="52.0508" x="254" y="114.0669">extends</text></g><!--link Controller to User--><g class="link" data-entity-1="Controller" data-entity-2="User" data-source-line="46" data-uid="lnk18" id="link_Controller_User"><path codeLine="46" d="M115.39,71.09 C139.71,93.07 172.75,122.95 200.36,147.91" fill="none" id="Controller-User" style="stroke:#181818;stroke-width:1;"/><text fill="#000000" font-family="sans-serif" font-size="13" lengthAdjust="spacing" textLength="52.0508" x="168" y="114.0669">extends</text></g><!--link TicketService to Ticket--><g class="link" data-entity-1="TicketService" data-entity-2="Ticket" data-source-line="48" data-uid="lnk19" id="link_TicketService_Ticket"><path codeLine="48" d="M401.88,220.7 C396.18,246.46 388.1352,282.9115 380.8552,315.8415" fill="none" id="TicketService-to-Ticket" style="stroke:#181818;stroke-width:1;"/><polygon fill="#181818" points="379.56,321.7,385.4085,313.7756,380.6393,316.8179,377.5971,312.0487,379.56,321.7" style="stroke:#181818;stroke-width:1;"/></g><!--link ValidationService to Ticket--><g class="link" data-entity-1="ValidationService" data-entity-2="Ticket" data-source-line="49" data-uid="lnk20" id="link_ValidationService_Ticket"><path codeLine="49" d="M553.27,220.7 C521.37,246.46 473.6481,285.0005 432.8681,317.9305" fill="none" id="ValidationService-to-Ticket" style="stroke:#181818;stroke-width:1;"/><polygon fill="#181818" points="428.2,321.7,437.7151,319.1578,432.0901,318.5588,432.6891,312.9337,428.2,321.7" style="stroke:#181818;stroke-width:1;"/></g><!--link AuthService to User--><g class="link" data-entity-1="AuthService" data-entity-2="User" data-source-line="50" data-uid="lnk21" id="link_AuthService_User"><path codeLine="50" d="M520.02,63.05 C487.99,79.15 443.75,100.76 404,118 C369.92,132.78 359.08,131.11 326,148 C320.34,150.89 319.7465,151.0592 314.0565,154.4192" fill="none" id="AuthService-to-User" style="stroke:#181818;stroke-width:1;"/><polygon fill="#181818" points="308.89,157.47,318.6736,156.338,313.1954,154.9276,314.6058,149.4494,308.89,157.47" style="stroke:#181818;stroke-width:1;"/></g><!--SRC=[RP91JyCm38Nl-HLHZqYTsBK7f0aan04a6ECwcSGCYpOfYJkG4F-TD4sxjACdv_dfwxCJLOFtSkVHoHyXmzU5SazQLdAtkxk9ae46mzcp8tE82ZP0jQoIyYk4YfXhQzZPkfvWQX8ov6JVw8PCSa9V_sTw9lM1d5mS3ujude4x7vHNQsi44yLFjrTMzx4VdpAOetP4XN81qjY2uyuDmmAJ7LZW71qXp2irC9veBr2JZhR4F4x2WipKO20sxHdZmJAzaSefmUhXq8Uutzuk5x55ToI5Pmdc-gRZzr4HyNABTI7BKXQNgzL5CIwralRBU95EgTUxWZckgWetw1pwrXfzygqdKxQ1QfmUjSZUGLbUPIun6tUUASQif8aEz69u7Q6V6lZDsAUOmPTDCTjI_FkWYBDLvSriNr7kgNy0]--></g></svg>