<svg xmlns="http://www.w3.org/2000/svg" xmlns:xlink="http://www.w3.org/1999/xlink" contentStyleType="text/css" data-diagram-type="DESCRIPTION" height="534px" preserveAspectRatio="none" style="width:1002px;height:534px;background:#FFFFFF;" version="1.1" viewBox="0 0 1002 534" width="1002px" zoomAndPan="magnify"><title>Diagram d'Architecture</title><defs/><g><g class="title" data-source-line="1"><text fill="#000000" font-family="sans-serif" font-size="14" font-weight="bold" lengthAdjust="spacing" textLength="184.3584" x="401.8208" y="22.9951">Diagram d'Architecture</text></g><!--cluster Client Side--><g class="cluster" data-entity="Client Side" data-source-line="3" data-uid="ent0002" id="cluster_Client Side"><path d="M390.5,43.2969 L476.7988,43.2969 A3.75,3.75 0 0 1 479.2988,45.7969 L486.2988,65.5938 L885.5,65.5938 A2.5,2.5 0 0 1 888,68.0938 L888,137.7969 A2.5,2.5 0 0 1 885.5,140.2969 L390.5,140.2969 A2.5,2.5 0 0 1 388,137.7969 L388,45.7969 A2.5,2.5 0 0 1 390.5,43.2969" fill="none" style="stroke:#000000;stroke-width:1.5;"/><line style="stroke:#000000;stroke-width:1.5;" x1="388" x2="486.2988" y1="65.5938" y2="65.5938"/><text fill="#000000" font-family="sans-serif" font-size="14" font-weight="bold" lengthAdjust="spacing" textLength="85.2988" x="392" y="58.292">Client Side</text></g><!--cluster Backend--><g class="cluster" data-entity="Backend" data-source-line="9" data-uid="ent0006" id="cluster_Backend"><path d="M8.5,164.2969 L76.7109,164.2969 A3.75,3.75 0 0 1 79.2109,166.7969 L86.2109,186.5938 L800.5,186.5938 A2.5,2.5 0 0 1 803,189.0938 L803,403.7969 A2.5,2.5 0 0 1 800.5,406.2969 L8.5,406.2969 A2.5,2.5 0 0 1 6,403.7969 L6,166.7969 A2.5,2.5 0 0 1 8.5,164.2969" fill="none" style="stroke:#000000;stroke-width:1.5;"/><line style="stroke:#000000;stroke-width:1.5;" x1="6" x2="86.2109" y1="186.5938" y2="186.5938"/><text fill="#000000" font-family="sans-serif" font-size="14" font-weight="bold" lengthAdjust="spacing" textLength="67.2109" x="10" y="179.292">Backend</text></g><!--cluster Services--><g class="cluster" data-entity="Services" data-source-line="12" data-uid="ent0008" id="cluster_Services"><path d="M32.5,285.2969 L100.0342,285.2969 A3.75,3.75 0 0 1 102.5342,287.7969 L109.5342,307.5938 L776.5,307.5938 A2.5,2.5 0 0 1 779,310.0938 L779,379.7969 A2.5,2.5 0 0 1 776.5,382.2969 L32.5,382.2969 A2.5,2.5 0 0 1 30,379.7969 L30,287.7969 A2.5,2.5 0 0 1 32.5,285.2969" fill="none" style="stroke:#000000;stroke-width:1.5;"/><line style="stroke:#000000;stroke-width:1.5;" x1="30" x2="109.5342" y1="307.5938" y2="307.5938"/><text fill="#000000" font-family="sans-serif" font-size="14" font-weight="bold" lengthAdjust="spacing" textLength="66.5342" x="34" y="300.292">Services</text></g><!--cluster Data Layer--><g class="cluster" data-entity="Data Layer" data-source-line="20" data-uid="ent0013" id="cluster_Data Layer"><path d="M348.5,430.2969 L435.4756,430.2969 A3.75,3.75 0 0 1 437.9756,432.7969 L444.9756,452.5938 L521.5,452.5938 A2.5,2.5 0 0 1 524,455.0938 L524,524.7969 A2.5,2.5 0 0 1 521.5,527.2969 L348.5,527.2969 A2.5,2.5 0 0 1 346,524.7969 L346,432.7969 A2.5,2.5 0 0 1 348.5,430.2969" fill="none" style="stroke:#000000;stroke-width:1.5;"/><line style="stroke:#000000;stroke-width:1.5;" x1="346" x2="444.9756" y1="452.5938" y2="452.5938"/><text fill="#000000" font-family="sans-serif" font-size="14" font-weight="bold" lengthAdjust="spacing" textLength="85.9756" x="350" y="445.292">Data Layer</text></g><!--cluster Offline Mode--><g class="cluster" data-entity="Offline Mode" data-source-line="24" data-uid="ent0015" id="cluster_Offline Mode"><path d="M829.5,164.2969 L931.583,164.2969 A3.75,3.75 0 0 1 934.083,166.7969 L941.083,186.5938 L992.5,186.5938 A2.5,2.5 0 0 1 995,189.0938 L995,258.7969 A2.5,2.5 0 0 1 992.5,261.2969 L829.5,261.2969 A2.5,2.5 0 0 1 827,258.7969 L827,166.7969 A2.5,2.5 0 0 1 829.5,164.2969" fill="none" style="stroke:#000000;stroke-width:1.5;"/><line style="stroke:#000000;stroke-width:1.5;" x1="827" x2="941.083" y1="186.5938" y2="186.5938"/><text fill="#000000" font-family="sans-serif" font-size="14" font-weight="bold" lengthAdjust="spacing" textLength="101.083" x="831" y="179.292">Offline Mode</text></g><!--entity Mobile App--><g class="entity" data-entity="Mobile App" data-source-line="4" data-uid="ent0003" id="entity_Mobile App"><rect fill="#F1F1F1" height="46.2969" rx="2.5" ry="2.5" style="stroke:#181818;stroke-width:0.5;" width="117.7246" x="543" y="78.2969"/><rect fill="#F1F1F1" height="10" style="stroke:#181818;stroke-width:0.5;" width="15" x="640.7246" y="83.2969"/><rect fill="#F1F1F1" height="2" style="stroke:#181818;stroke-width:0.5;" width="4" x="638.7246" y="85.2969"/><rect fill="#F1F1F1" height="2" style="stroke:#181818;stroke-width:0.5;" width="4" x="638.7246" y="89.2969"/><text fill="#000000" font-family="sans-serif" font-size="14" lengthAdjust="spacing" textLength="77.7246" x="558" y="111.292">Mobile App</text></g><!--entity Web App--><g class="entity" data-entity="Web App" data-source-line="5" data-uid="ent0004" id="entity_Web App"><rect fill="#F1F1F1" height="46.2969" rx="2.5" ry="2.5" style="stroke:#181818;stroke-width:0.5;" width="103.1436" x="404.5" y="78.2969"/><rect fill="#F1F1F1" height="10" style="stroke:#181818;stroke-width:0.5;" width="15" x="487.6436" y="83.2969"/><rect fill="#F1F1F1" height="2" style="stroke:#181818;stroke-width:0.5;" width="4" x="485.6436" y="85.2969"/><rect fill="#F1F1F1" height="2" style="stroke:#181818;stroke-width:0.5;" width="4" x="485.6436" y="89.2969"/><text fill="#000000" font-family="sans-serif" font-size="14" lengthAdjust="spacing" textLength="63.1436" x="419.5" y="111.292">Web App</text></g><!--entity Controller Terminal--><g class="entity" data-entity="Controller Terminal" data-source-line="6" data-uid="ent0005" id="entity_Controller Terminal"><rect fill="#F1F1F1" height="46.2969" rx="2.5" ry="2.5" style="stroke:#181818;stroke-width:0.5;" width="175.4131" x="696.5" y="78.2969"/><rect fill="#F1F1F1" height="10" style="stroke:#181818;stroke-width:0.5;" width="15" x="851.9131" y="83.2969"/><rect fill="#F1F1F1" height="2" style="stroke:#181818;stroke-width:0.5;" width="4" x="849.9131" y="85.2969"/><rect fill="#F1F1F1" height="2" style="stroke:#181818;stroke-width:0.5;" width="4" x="849.9131" y="89.2969"/><text fill="#000000" font-family="sans-serif" font-size="14" lengthAdjust="spacing" textLength="135.4131" x="711.5" y="111.292">Controller Terminal</text></g><!--entity API REST--><g class="entity" data-entity="API REST" data-source-line="10" data-uid="ent0007" id="entity_API REST"><rect fill="#F1F1F1" height="46.2969" rx="2.5" ry="2.5" style="stroke:#181818;stroke-width:0.5;" width="102.6104" x="477.5" y="199.2969"/><rect fill="#F1F1F1" height="10" style="stroke:#181818;stroke-width:0.5;" width="15" x="560.1104" y="204.2969"/><rect fill="#F1F1F1" height="2" style="stroke:#181818;stroke-width:0.5;" width="4" x="558.1104" y="206.2969"/><rect fill="#F1F1F1" height="2" style="stroke:#181818;stroke-width:0.5;" width="4" x="558.1104" y="210.2969"/><text fill="#000000" font-family="sans-serif" font-size="14" lengthAdjust="spacing" textLength="62.6104" x="492.5" y="232.292">API REST</text></g><!--entity Auth Service--><g class="entity" data-entity="Auth Service" data-source-line="13" data-uid="ent0009" id="entity_Auth Service"><rect fill="#F1F1F1" height="46.2969" rx="2.5" ry="2.5" style="stroke:#181818;stroke-width:0.5;" width="129.0039" x="633.5" y="320.2969"/><rect fill="#F1F1F1" height="10" style="stroke:#181818;stroke-width:0.5;" width="15" x="742.5039" y="325.2969"/><rect fill="#F1F1F1" height="2" style="stroke:#181818;stroke-width:0.5;" width="4" x="740.5039" y="327.2969"/><rect fill="#F1F1F1" height="2" style="stroke:#181818;stroke-width:0.5;" width="4" x="740.5039" y="331.2969"/><text fill="#000000" font-family="sans-serif" font-size="14" lengthAdjust="spacing" textLength="89.0039" x="648.5" y="353.292">Auth Service</text></g><!--entity Ticket Service--><g class="entity" data-entity="Ticket Service" data-source-line="14" data-uid="ent0010" id="entity_Ticket Service"><rect fill="#F1F1F1" height="46.2969" rx="2.5" ry="2.5" style="stroke:#181818;stroke-width:0.5;" width="138.54" x="459.5" y="320.2969"/><rect fill="#F1F1F1" height="10" style="stroke:#181818;stroke-width:0.5;" width="15" x="578.04" y="325.2969"/><rect fill="#F1F1F1" height="2" style="stroke:#181818;stroke-width:0.5;" width="4" x="576.04" y="327.2969"/><rect fill="#F1F1F1" height="2" style="stroke:#181818;stroke-width:0.5;" width="4" x="576.04" y="331.2969"/><text fill="#000000" font-family="sans-serif" font-size="14" lengthAdjust="spacing" textLength="98.54" x="474.5" y="353.292">Ticket Service</text></g><!--entity Validation Service--><g class="entity" data-entity="Validation Service" data-source-line="15" data-uid="ent0011" id="entity_Validation Service"><rect fill="#F1F1F1" height="46.2969" rx="2.5" ry="2.5" style="stroke:#181818;stroke-width:0.5;" width="166.4102" x="258" y="320.2969"/><rect fill="#F1F1F1" height="10" style="stroke:#181818;stroke-width:0.5;" width="15" x="404.4102" y="325.2969"/><rect fill="#F1F1F1" height="2" style="stroke:#181818;stroke-width:0.5;" width="4" x="402.4102" y="327.2969"/><rect fill="#F1F1F1" height="2" style="stroke:#181818;stroke-width:0.5;" width="4" x="402.4102" y="331.2969"/><text fill="#000000" font-family="sans-serif" font-size="14" lengthAdjust="spacing" textLength="126.4102" x="273" y="353.292">Validation Service</text></g><!--entity Notification Service--><g class="entity" data-entity="Notification Service" data-source-line="16" data-uid="ent0012" id="entity_Notification Service"><rect fill="#F1F1F1" height="46.2969" rx="2.5" ry="2.5" style="stroke:#181818;stroke-width:0.5;" width="176.5205" x="45.5" y="320.2969"/><rect fill="#F1F1F1" height="10" style="stroke:#181818;stroke-width:0.5;" width="15" x="202.0205" y="325.2969"/><rect fill="#F1F1F1" height="2" style="stroke:#181818;stroke-width:0.5;" width="4" x="200.0205" y="327.2969"/><rect fill="#F1F1F1" height="2" style="stroke:#181818;stroke-width:0.5;" width="4" x="200.0205" y="331.2969"/><text fill="#000000" font-family="sans-serif" font-size="14" lengthAdjust="spacing" textLength="136.5205" x="60.5" y="353.292">Notification Service</text></g><!--entity PostgreSQL DB--><g class="entity" data-entity="PostgreSQL DB" data-source-line="21" data-uid="ent0014" id="entity_PostgreSQL DB"><rect fill="#F1F1F1" height="46.2969" rx="2.5" ry="2.5" style="stroke:#181818;stroke-width:0.5;" width="145.5879" x="362" y="465.2969"/><rect fill="#F1F1F1" height="10" style="stroke:#181818;stroke-width:0.5;" width="15" x="487.5879" y="470.2969"/><rect fill="#F1F1F1" height="2" style="stroke:#181818;stroke-width:0.5;" width="4" x="485.5879" y="472.2969"/><rect fill="#F1F1F1" height="2" style="stroke:#181818;stroke-width:0.5;" width="4" x="485.5879" y="476.2969"/><text fill="#000000" font-family="sans-serif" font-size="14" lengthAdjust="spacing" textLength="105.5879" x="377" y="498.292">PostgreSQL DB</text></g><!--entity Local Storage--><g class="entity" data-entity="Local Storage" data-source-line="25" data-uid="ent0016" id="entity_Local Storage"><rect fill="#F1F1F1" height="46.2969" rx="2.5" ry="2.5" style="stroke:#181818;stroke-width:0.5;" width="135.7578" x="843" y="199.2969"/><rect fill="#F1F1F1" height="10" style="stroke:#181818;stroke-width:0.5;" width="15" x="958.7578" y="204.2969"/><rect fill="#F1F1F1" height="2" style="stroke:#181818;stroke-width:0.5;" width="4" x="956.7578" y="206.2969"/><rect fill="#F1F1F1" height="2" style="stroke:#181818;stroke-width:0.5;" width="4" x="956.7578" y="210.2969"/><text fill="#000000" font-family="sans-serif" font-size="14" lengthAdjust="spacing" textLength="95.7578" x="858" y="232.292">Local Storage</text></g><!--link Mobile App to API REST--><g class="link" data-entity-1="Mobile App" data-entity-2="API REST" data-source-line="30" data-uid="lnk17" id="link_Mobile App_API REST"><path d="M588.44,124.3969 C575.41,145.6369 558.9583,172.4631 545.8683,193.7931" fill="none" id="Mobile App-to-API REST" style="stroke:#181818;stroke-width:1;"/><polygon fill="#181818" points="542.73,198.9069,550.8467,193.3283,545.3452,194.6454,544.0282,189.144,542.73,198.9069" style="stroke:#181818;stroke-width:1;"/></g><!--link Web App to API REST--><g class="link" data-entity-1="Web App" data-entity-2="API REST" data-source-line="31" data-uid="lnk18" id="link_Web App_API REST"><path d="M469.56,124.3969 C482.59,145.6369 499.0417,172.4631 512.1317,193.7931" fill="none" id="Web App-to-API REST" style="stroke:#181818;stroke-width:1;"/><polygon fill="#181818" points="515.27,198.9069,513.9718,189.144,512.6548,194.6454,507.1533,193.3283,515.27,198.9069" style="stroke:#181818;stroke-width:1;"/></g><!--link Controller Terminal to API REST--><g class="link" data-entity-1="Controller Terminal" data-entity-2="API REST" data-source-line="32" data-uid="lnk19" id="link_Controller Terminal_API REST"><path d="M736.63,124.3969 C690.98,145.7069 627.6974,175.2401 581.9774,196.5701" fill="none" id="Controller Terminal-to-API REST" style="stroke:#181818;stroke-width:1;"/><polygon fill="#181818" points="576.54,199.1069,586.3872,198.9267,581.0711,196.9929,583.0049,191.6769,576.54,199.1069" style="stroke:#181818;stroke-width:1;"/></g><!--link Controller Terminal to Local Storage--><g class="link" data-entity-1="Controller Terminal" data-entity-2="Local Storage" data-source-line="34" data-uid="lnk20" id="link_Controller Terminal_Local Storage"><path d="M807.59,124.3969 C830.26,145.6369 859.9612,173.475 882.7312,194.805" fill="none" id="Controller Terminal-to-Local Storage" style="stroke:#181818;stroke-width:1;"/><polygon fill="#181818" points="887.11,198.9069,883.2763,189.8348,883.461,195.4886,877.8071,195.6732,887.11,198.9069" style="stroke:#181818;stroke-width:1;"/></g><!--link API REST to Auth Service--><g class="link" data-entity-1="API REST" data-entity-2="Auth Service" data-source-line="36" data-uid="lnk21" id="link_API REST_Auth Service"><path d="M566.87,245.4969 C582.36,254.9169 600.3,266.2569 616,277.2969 C635.17,290.7769 651.2007,303.372 666.9907,316.322" fill="none" id="API REST-to-Auth Service" style="stroke:#181818;stroke-width:1;"/><polygon fill="#181818" points="671.63,320.1269,667.2076,311.3267,667.7639,316.9562,662.1345,317.5124,671.63,320.1269" style="stroke:#181818;stroke-width:1;"/></g><!--link API REST to Ticket Service--><g class="link" data-entity-1="API REST" data-entity-2="Ticket Service" data-source-line="37" data-uid="lnk22" id="link_API REST_Ticket Service"><path d="M529,245.3969 C529,266.6369 529,292.5769 529,313.9069" fill="none" id="API REST-to-Ticket Service" style="stroke:#181818;stroke-width:1;"/><polygon fill="#181818" points="529,319.9069,533,310.9069,529,314.9069,525,310.9069,529,319.9069" style="stroke:#181818;stroke-width:1;"/></g><!--link API REST to Validation Service--><g class="link" data-entity-1="API REST" data-entity-2="Validation Service" data-source-line="38" data-uid="lnk23" id="link_API REST_Validation Service"><path d="M492.94,245.4969 C477.25,255.1969 458.68,266.7569 442,277.2969 C419.61,291.4469 399.6178,304.298 380.0778,316.938" fill="none" id="API REST-to-Validation Service" style="stroke:#181818;stroke-width:1;"/><polygon fill="#181818" points="375.04,320.1969,384.7693,318.6671,379.2382,317.4812,380.4242,311.95,375.04,320.1969" style="stroke:#181818;stroke-width:1;"/></g><!--link API REST to Notification Service--><g class="link" data-entity-1="API REST" data-entity-2="Notification Service" data-source-line="39" data-uid="lnk24" id="link_API REST_Notification Service"><path d="M477.34,227.2369 C418.3,233.0269 319.55,246.6769 240,277.2969 C212.4,287.9169 188.8948,302.3453 168.4448,316.6653" fill="none" id="API REST-to-Notification Service" style="stroke:#181818;stroke-width:1;"/><polygon fill="#181818" points="163.53,320.1069,173.1966,318.2211,167.6257,317.2389,168.6079,311.668,163.53,320.1069" style="stroke:#181818;stroke-width:1;"/></g><!--link Ticket Service to PostgreSQL DB--><g class="link" data-entity-1="Ticket Service" data-entity-2="PostgreSQL DB" data-source-line="41" data-uid="lnk25" id="link_Ticket Service_PostgreSQL DB"><path d="M514.52,366.3269 C496.91,393.1169 470.6359,433.0832 452.9459,459.9932" fill="none" id="Ticket Service-to-PostgreSQL DB" style="stroke:#181818;stroke-width:1;"/><polygon fill="#181818" points="449.65,465.0069,457.9363,459.6836,452.3966,460.8288,451.2514,455.2891,449.65,465.0069" style="stroke:#181818;stroke-width:1;"/></g><!--link Validation Service to PostgreSQL DB--><g class="link" data-entity-1="Validation Service" data-entity-2="PostgreSQL DB" data-source-line="42" data-uid="lnk26" id="link_Validation Service_PostgreSQL DB"><path d="M355.48,366.3269 C373.09,393.1169 399.3641,433.0832 417.0541,459.9932" fill="none" id="Validation Service-to-PostgreSQL DB" style="stroke:#181818;stroke-width:1;"/><polygon fill="#181818" points="420.35,465.0069,418.7486,455.2891,417.6034,460.8288,412.0637,459.6836,420.35,465.0069" style="stroke:#181818;stroke-width:1;"/></g><!--link Auth Service to PostgreSQL DB--><g class="link" data-entity-1="Auth Service" data-entity-2="PostgreSQL DB" data-source-line="43" data-uid="lnk27" id="link_Auth Service_PostgreSQL DB"><path d="M676.21,366.3469 C660.51,381.3269 638.25,400.8069 616,414.2969 C581.23,435.3769 544.9365,450.708 510.1765,463.198" fill="none" id="Auth Service-to-PostgreSQL DB" style="stroke:#181818;stroke-width:1;"/><polygon fill="#181818" points="504.53,465.2269,514.3524,465.9479,509.2355,463.5361,511.6472,458.4191,504.53,465.2269" style="stroke:#181818;stroke-width:1;"/></g><!--link Notification Service to PostgreSQL DB--><g class="link" data-entity-1="Notification Service" data-entity-2="PostgreSQL DB" data-source-line="44" data-uid="lnk28" id="link_Notification Service_PostgreSQL DB"><path d="M163.52,366.4069 C184.2,381.2269 212.88,400.4869 240,414.2969 C279.78,434.5569 320.8917,450.3185 358.6517,463.2085" fill="none" id="Notification Service-to-PostgreSQL DB" style="stroke:#181818;stroke-width:1;"/><polygon fill="#181818" points="364.33,465.1469,357.1048,458.4538,359.5981,463.5316,354.5204,466.0248,364.33,465.1469" style="stroke:#181818;stroke-width:1;"/></g><!--SRC=[VP51JiCm44NtFiMecwvwX22b3Gka54eJmG9buJgJT8HhHyuK2Q7UdP2KD34MNddyd_-ClvbO8oGaQoTFK2vZfux4gFZiK8X6gdTP8omscj0mP5JY0hu4TEjjQm_KtOsRfXWENl4mgJRMiBDQeuCStOcCr8MuJ3pNtGPDEVh5kmVOtsTv8Vfwv39q7wIm_GK7-Cn7k2h5xJYdpfC3melKL4ecQmBYesMgI0NaospYHBA4L7wY6uVUsPPhXzbp2ibw_hwdgj9a4BPs4bfgbTIGiNKTq_DBYA88zgZxzkrF9SGqN5YjxgRfZ3d_4KAH-z1_b3USk5sxkin2zrK_UryFVO7FX7z2-Du3x6KVQX06P-y88y51GkWt]--></g></svg>