<svg xmlns="http://www.w3.org/2000/svg" xmlns:xlink="http://www.w3.org/1999/xlink" contentStyleType="text/css" data-diagram-type="DESCRIPTION" height="414px" preserveAspectRatio="none" style="width:686px;height:414px;background:#FFFFFF;" version="1.1" viewBox="0 0 686 414" width="686px" zoomAndPan="magnify"><title>Deployment Diagram</title><defs/><g><g class="title" data-source-line="1"><text fill="#000000" font-family="sans-serif" font-size="14" font-weight="bold" lengthAdjust="spacing" textLength="167.125" x="252.4375" y="22.9951">Deployment Diagram</text></g><!--cluster User Smartphone--><g class="cluster" data-entity="User Smartphone" data-source-line="3" data-uid="ent0002" id="cluster_User Smartphone"><polygon fill="none" points="16,53.2969,26,43.2969,229,43.2969,229,135.2969,219,145.2969,16,145.2969,16,53.2969" style="stroke:#181818;stroke-width:1;"/><line style="stroke:#181818;stroke-width:1;" x1="219" x2="229" y1="53.2969" y2="43.2969"/><line style="stroke:#181818;stroke-width:1;" x1="16" x2="219" y1="53.2969" y2="53.2969"/><line style="stroke:#181818;stroke-width:1;" x1="219" x2="219" y1="53.2969" y2="145.2969"/><text fill="#000000" font-family="sans-serif" font-size="14" font-weight="bold" lengthAdjust="spacing" textLength="137.7578" x="49.6211" y="69.292">User Smartphone</text></g><!--cluster Web Browser--><g class="cluster" data-entity="Web Browser" data-source-line="7" data-uid="ent0004" id="cluster_Web Browser"><polygon fill="none" points="253,53.2969,263,43.2969,433,43.2969,433,135.2969,423,145.2969,253,145.2969,253,53.2969" style="stroke:#181818;stroke-width:1;"/><line style="stroke:#181818;stroke-width:1;" x1="423" x2="433" y1="53.2969" y2="43.2969"/><line style="stroke:#181818;stroke-width:1;" x1="253" x2="423" y1="53.2969" y2="53.2969"/><line style="stroke:#181818;stroke-width:1;" x1="423" x2="423" y1="53.2969" y2="145.2969"/><text fill="#000000" font-family="sans-serif" font-size="14" font-weight="bold" lengthAdjust="spacing" textLength="104.6924" x="286.6538" y="69.292">Web Browser</text></g><!--cluster Controller Device--><g class="cluster" data-entity="Controller Device" data-source-line="11" data-uid="ent0006" id="cluster_Controller Device"><polygon fill="none" points="457,53.2969,467,43.2969,669,43.2969,669,261.2969,659,271.2969,457,271.2969,457,53.2969" style="stroke:#181818;stroke-width:1;"/><line style="stroke:#181818;stroke-width:1;" x1="659" x2="669" y1="53.2969" y2="43.2969"/><line style="stroke:#181818;stroke-width:1;" x1="457" x2="659" y1="53.2969" y2="53.2969"/><line style="stroke:#181818;stroke-width:1;" x1="659" x2="659" y1="53.2969" y2="271.2969"/><text fill="#000000" font-family="sans-serif" font-size="14" font-weight="bold" lengthAdjust="spacing" textLength="136.7803" x="490.6099" y="69.292">Controller Device</text></g><!--cluster Backend Server--><g class="cluster" data-entity="Backend Server" data-source-line="16" data-uid="ent0009" id="cluster_Backend Server"><polygon fill="none" points="211,179.2969,221,169.2969,411,169.2969,411,387.2969,401,397.2969,211,397.2969,211,179.2969" style="stroke:#181818;stroke-width:1;"/><line style="stroke:#181818;stroke-width:1;" x1="401" x2="411" y1="179.2969" y2="169.2969"/><line style="stroke:#181818;stroke-width:1;" x1="211" x2="401" y1="179.2969" y2="179.2969"/><line style="stroke:#181818;stroke-width:1;" x1="401" x2="401" y1="179.2969" y2="397.2969"/><text fill="#000000" font-family="sans-serif" font-size="14" font-weight="bold" lengthAdjust="spacing" textLength="124.0928" x="244.9536" y="195.292">Backend Server</text></g><!--cluster Database Server--><g class="cluster" data-entity="Database Server" data-source-line="21" data-uid="ent0012" id="cluster_Database Server"><polygon fill="none" points="435,305.2969,445,295.2969,642,295.2969,642,387.2969,632,397.2969,435,397.2969,435,305.2969" style="stroke:#181818;stroke-width:1;"/><line style="stroke:#181818;stroke-width:1;" x1="632" x2="642" y1="305.2969" y2="295.2969"/><line style="stroke:#181818;stroke-width:1;" x1="435" x2="632" y1="305.2969" y2="305.2969"/><line style="stroke:#181818;stroke-width:1;" x1="632" x2="632" y1="305.2969" y2="397.2969"/><text fill="#000000" font-family="sans-serif" font-size="14" font-weight="bold" lengthAdjust="spacing" textLength="131.3867" x="468.8066" y="321.292">Database Server</text></g><!--entity Mobile App--><g class="entity" data-entity="Mobile App" data-source-line="4" data-uid="ent0003" id="entity_Mobile App"><rect fill="#F1F1F1" height="46.2969" rx="2.5" ry="2.5" style="stroke:#181818;stroke-width:0.5;" width="117.7246" x="95" y="83.2969"/><rect fill="#F1F1F1" height="10" style="stroke:#181818;stroke-width:0.5;" width="15" x="192.7246" y="88.2969"/><rect fill="#F1F1F1" height="2" style="stroke:#181818;stroke-width:0.5;" width="4" x="190.7246" y="90.2969"/><rect fill="#F1F1F1" height="2" style="stroke:#181818;stroke-width:0.5;" width="4" x="190.7246" y="94.2969"/><text fill="#000000" font-family="sans-serif" font-size="14" lengthAdjust="spacing" textLength="77.7246" x="110" y="116.292">Mobile App</text></g><!--entity Web App--><g class="entity" data-entity="Web App" data-source-line="8" data-uid="ent0005" id="entity_Web App"><rect fill="#F1F1F1" height="46.2969" rx="2.5" ry="2.5" style="stroke:#181818;stroke-width:0.5;" width="103.1436" x="291.5" y="83.2969"/><rect fill="#F1F1F1" height="10" style="stroke:#181818;stroke-width:0.5;" width="15" x="374.6436" y="88.2969"/><rect fill="#F1F1F1" height="2" style="stroke:#181818;stroke-width:0.5;" width="4" x="372.6436" y="90.2969"/><rect fill="#F1F1F1" height="2" style="stroke:#181818;stroke-width:0.5;" width="4" x="372.6436" y="94.2969"/><text fill="#000000" font-family="sans-serif" font-size="14" lengthAdjust="spacing" textLength="63.1436" x="306.5" y="116.292">Web App</text></g><!--entity Terminal--><g class="entity" data-entity="Terminal" data-source-line="12" data-uid="ent0007" id="entity_Terminal"><rect fill="#F1F1F1" height="46.2969" rx="2.5" ry="2.5" style="stroke:#181818;stroke-width:0.5;" width="101.79" x="481" y="83.2969"/><rect fill="#F1F1F1" height="10" style="stroke:#181818;stroke-width:0.5;" width="15" x="562.79" y="88.2969"/><rect fill="#F1F1F1" height="2" style="stroke:#181818;stroke-width:0.5;" width="4" x="560.79" y="90.2969"/><rect fill="#F1F1F1" height="2" style="stroke:#181818;stroke-width:0.5;" width="4" x="560.79" y="94.2969"/><text fill="#000000" font-family="sans-serif" font-size="14" lengthAdjust="spacing" textLength="61.79" x="496" y="116.292">Terminal</text></g><!--entity Local Storage--><g class="entity" data-entity="Local Storage" data-source-line="13" data-uid="ent0008" id="entity_Local Storage"><rect fill="#F1F1F1" height="46.2969" rx="2.5" ry="2.5" style="stroke:#181818;stroke-width:0.5;" width="135.7578" x="473" y="209.2969"/><rect fill="#F1F1F1" height="10" style="stroke:#181818;stroke-width:0.5;" width="15" x="588.7578" y="214.2969"/><rect fill="#F1F1F1" height="2" style="stroke:#181818;stroke-width:0.5;" width="4" x="586.7578" y="216.2969"/><rect fill="#F1F1F1" height="2" style="stroke:#181818;stroke-width:0.5;" width="4" x="586.7578" y="220.2969"/><text fill="#000000" font-family="sans-serif" font-size="14" lengthAdjust="spacing" textLength="95.7578" x="488" y="242.292">Local Storage</text></g><!--entity API REST--><g class="entity" data-entity="API REST" data-source-line="17" data-uid="ent0010" id="entity_API REST"><rect fill="#F1F1F1" height="46.2969" rx="2.5" ry="2.5" style="stroke:#181818;stroke-width:0.5;" width="102.6104" x="291.5" y="209.2969"/><rect fill="#F1F1F1" height="10" style="stroke:#181818;stroke-width:0.5;" width="15" x="374.1104" y="214.2969"/><rect fill="#F1F1F1" height="2" style="stroke:#181818;stroke-width:0.5;" width="4" x="372.1104" y="216.2969"/><rect fill="#F1F1F1" height="2" style="stroke:#181818;stroke-width:0.5;" width="4" x="372.1104" y="220.2969"/><text fill="#000000" font-family="sans-serif" font-size="14" lengthAdjust="spacing" textLength="62.6104" x="306.5" y="242.292">API REST</text></g><!--entity Services--><g class="entity" data-entity="Services" data-source-line="18" data-uid="ent0011" id="entity_Services"><rect fill="#F1F1F1" height="46.2969" rx="2.5" ry="2.5" style="stroke:#181818;stroke-width:0.5;" width="99.0352" x="293.5" y="335.2969"/><rect fill="#F1F1F1" height="10" style="stroke:#181818;stroke-width:0.5;" width="15" x="372.5352" y="340.2969"/><rect fill="#F1F1F1" height="2" style="stroke:#181818;stroke-width:0.5;" width="4" x="370.5352" y="342.2969"/><rect fill="#F1F1F1" height="2" style="stroke:#181818;stroke-width:0.5;" width="4" x="370.5352" y="346.2969"/><text fill="#000000" font-family="sans-serif" font-size="14" lengthAdjust="spacing" textLength="59.0352" x="308.5" y="368.292">Services</text></g><!--entity PostgreSQL DB--><g class="entity" data-entity="PostgreSQL DB" data-source-line="22" data-uid="ent0013" id="entity_PostgreSQL DB"><rect fill="#F1F1F1" height="46.2969" rx="2.5" ry="2.5" style="stroke:#181818;stroke-width:0.5;" width="145.5879" x="451" y="335.2969"/><rect fill="#F1F1F1" height="10" style="stroke:#181818;stroke-width:0.5;" width="15" x="576.5879" y="340.2969"/><rect fill="#F1F1F1" height="2" style="stroke:#181818;stroke-width:0.5;" width="4" x="574.5879" y="342.2969"/><rect fill="#F1F1F1" height="2" style="stroke:#181818;stroke-width:0.5;" width="4" x="574.5879" y="346.2969"/><text fill="#000000" font-family="sans-serif" font-size="14" lengthAdjust="spacing" textLength="105.5879" x="466" y="368.292">PostgreSQL DB</text></g><!--link Mobile App to API REST--><g class="link" data-entity-1="Mobile App" data-entity-2="API REST" data-source-line="25" data-uid="lnk14" id="link_Mobile App_API REST"><path d="M187.79,129.4669 C222.08,151.9669 269.8626,183.3166 304.1726,205.8166" fill="none" id="Mobile App-to-API REST" style="stroke:#181818;stroke-width:1;"/><polygon fill="#181818" points="309.19,209.1069,303.8575,200.8265,305.0089,206.365,299.4704,207.5163,309.19,209.1069" style="stroke:#181818;stroke-width:1;"/></g><!--link Web App to API REST--><g class="link" data-entity-1="Web App" data-entity-2="API REST" data-source-line="26" data-uid="lnk15" id="link_Web App_API REST"><path d="M343,129.4669 C343,151.8969 343,180.3869 343,202.9069" fill="none" id="Web App-to-API REST" style="stroke:#181818;stroke-width:1;"/><polygon fill="#181818" points="343,208.9069,347,199.9069,343,203.9069,339,199.9069,343,208.9069" style="stroke:#181818;stroke-width:1;"/></g><!--link Terminal to API REST--><g class="link" data-entity-1="Terminal" data-entity-2="API REST" data-source-line="27" data-uid="lnk16" id="link_Terminal_API REST"><path d="M498.21,129.4669 C463.92,151.9669 416.1374,183.3166 381.8274,205.8166" fill="none" id="Terminal-to-API REST" style="stroke:#181818;stroke-width:1;"/><polygon fill="#181818" points="376.81,209.1069,386.5296,207.5163,380.9911,206.365,382.1425,200.8265,376.81,209.1069" style="stroke:#181818;stroke-width:1;"/></g><!--link Terminal to Local Storage--><g class="link" data-entity-1="Terminal" data-entity-2="Local Storage" data-source-line="28" data-uid="lnk17" id="link_Terminal_Local Storage"><path d="M533.61,129.4669 C535.24,151.8969 537.3069,180.4025 538.9369,202.9225" fill="none" id="Terminal-to-Local Storage" style="stroke:#181818;stroke-width:1;"/><polygon fill="#181818" points="539.37,208.9069,542.7098,199.6416,539.009,203.9199,534.7307,200.2191,539.37,208.9069" style="stroke:#181818;stroke-width:1;"/></g><!--link Services to API REST--><g class="link" data-entity-1="Services" data-entity-2="API REST" data-source-line="29" data-uid="lnk18" id="link_Services_API REST"><path d="M353.67,334.9069 C357.46,312.3869 358.4448,283.8121 354.6348,261.3821" fill="none" id="Services-to-API REST" style="stroke:#181818;stroke-width:1;"/><polygon fill="#181818" points="353.63,255.4669,351.1937,265.0096,354.4673,260.3963,359.0807,263.6699,353.63,255.4669" style="stroke:#181818;stroke-width:1;"/></g><!--link API REST to Services--><g class="link" data-entity-1="API REST" data-entity-2="Services" data-source-line="30" data-uid="lnk19" id="link_API REST_Services"><path d="M332.96,255.4669 C329.36,277.8969 328.4106,306.4609 331.9806,328.9809" fill="none" id="API REST-to-Services" style="stroke:#181818;stroke-width:1;"/><polygon fill="#181818" points="332.92,334.9069,335.4615,325.3916,332.1371,329.9685,327.5602,326.6442,332.92,334.9069" style="stroke:#181818;stroke-width:1;"/></g><!--link API REST to PostgreSQL DB--><g class="link" data-entity-1="API REST" data-entity-2="PostgreSQL DB" data-source-line="32" data-uid="lnk20" id="link_API REST_PostgreSQL DB"><path d="M375.36,255.4669 C408.2,277.9669 453.8093,309.217 486.6693,331.717" fill="none" id="API REST-to-PostgreSQL DB" style="stroke:#181818;stroke-width:1;"/><polygon fill="#181818" points="491.62,335.1069,486.4539,326.7217,487.4944,332.282,481.9341,333.3226,491.62,335.1069" style="stroke:#181818;stroke-width:1;"/></g><!--SRC=[XL3DYi8m4BxtAORSVOK5k_4WAAXHF4_hK8D99ao3YyY- -qPbQxLTDgS9ttn_asno19gYuukda41RR0HzKGG-4AXTImB6ewHuv40AhWNaLxEF-PltrP8hcoMcCQhY-vUsfmfAuQ_C7g7SqDVzJmv9sBbifkbiwp6ZBOct0Prw1nPSemEJMB2XdcY9zOd20Gp9UJJ7T3M7pSni1uetHWxHziGq9gomfR_LLjocHiYi5w3BExD_6vXCFlgEtH46GDVpF-IjzpFrWDYD3-HPRm2zblW1]--></g></svg>