<svg xmlns="http://www.w3.org/2000/svg" xmlns:xlink="http://www.w3.org/1999/xlink" contentStyleType="text/css" data-diagram-type="SEQUENCE" height="373px" preserveAspectRatio="none" style="width:453px;height:373px;background:#FFFFFF;" version="1.1" viewBox="0 0 453 373" width="453px" zoomAndPan="magnify"><defs/><g><rect fill="none" height="177.7969" style="stroke:#000000;stroke-width:1.5;" width="437.7666" x="10" y="98.2969"/><rect fill="none" height="75.3984" style="stroke:#000000;stroke-width:1.5;" width="417.7666" x="20" y="193.6953"/><g><title>Central Server</title><rect fill="#000000" fill-opacity="0.00000" height="211.7969" width="8" x="79.668" y="81.2969"/><line style="stroke:#181818;stroke-width:0.5;stroke-dasharray:5.0,5.0;" x1="83" x2="83" y1="81.2969" y2="293.0938"/></g><g><title>DB</title><rect fill="#000000" fill-opacity="0.00000" height="211.7969" width="8" x="245.2461" y="81.2969"/><line style="stroke:#181818;stroke-width:0.5;stroke-dasharray:5.0,5.0;" x1="249.2461" x2="249.2461" y1="81.2969" y2="293.0938"/></g><g><title>Notification Service</title><rect fill="#000000" fill-opacity="0.00000" height="211.7969" width="8" x="348.5063" y="81.2969"/><line style="stroke:#181818;stroke-width:0.5;stroke-dasharray:5.0,5.0;" x1="352.2461" x2="352.2461" y1="81.2969" y2="293.0938"/></g><g class="participant participant-head" data-participant="CS"><text fill="#000000" font-family="sans-serif" font-size="14" lengthAdjust="spacing" textLength="101.3359" x="30" y="77.9951">Central Server</text><ellipse cx="83.668" cy="13.5" fill="#E2E2F0" rx="8" ry="8" style="stroke:#181818;stroke-width:0.5;"/><path d="M83.668,21.5 L83.668,48.5 M70.668,29.5 L96.668,29.5 M83.668,48.5 L70.668,63.5 M83.668,48.5 L96.668,63.5" fill="none" style="stroke:#181818;stroke-width:0.5;"/></g><g class="participant participant-tail" data-participant="CS"><text fill="#000000" font-family="sans-serif" font-size="14" lengthAdjust="spacing" textLength="101.3359" x="30" y="305.0889">Central Server</text><ellipse cx="83.668" cy="316.8906" fill="#E2E2F0" rx="8" ry="8" style="stroke:#181818;stroke-width:0.5;"/><path d="M83.668,324.8906 L83.668,351.8906 M70.668,332.8906 L96.668,332.8906 M83.668,351.8906 L70.668,366.8906 M83.668,351.8906 L96.668,366.8906" fill="none" style="stroke:#181818;stroke-width:0.5;"/></g><g class="participant participant-head" data-participant="DB"><text fill="#000000" font-family="sans-serif" font-size="14" lengthAdjust="spacing" textLength="20.3848" x="236.0537" y="77.9951">DB</text><path d="M231.2461,29 C231.2461,19 249.2461,19 249.2461,19 C249.2461,19 267.2461,19 267.2461,29 L267.2461,55 C267.2461,65 249.2461,65 249.2461,65 C249.2461,65 231.2461,65 231.2461,55 L231.2461,29" fill="#E2E2F0" style="stroke:#181818;stroke-width:1.5;"/><path d="M231.2461,29 C231.2461,39 249.2461,39 249.2461,39 C249.2461,39 267.2461,39 267.2461,29" fill="none" style="stroke:#181818;stroke-width:1.5;"/></g><g class="participant participant-tail" data-participant="DB"><text fill="#000000" font-family="sans-serif" font-size="14" lengthAdjust="spacing" textLength="20.3848" x="236.0537" y="305.0889">DB</text><path d="M231.2461,318.3906 C231.2461,308.3906 249.2461,308.3906 249.2461,308.3906 C249.2461,308.3906 267.2461,308.3906 267.2461,318.3906 L267.2461,344.3906 C267.2461,354.3906 249.2461,354.3906 249.2461,354.3906 C249.2461,354.3906 231.2461,354.3906 231.2461,344.3906 L231.2461,318.3906" fill="#E2E2F0" style="stroke:#181818;stroke-width:1.5;"/><path d="M231.2461,318.3906 C231.2461,328.3906 249.2461,328.3906 249.2461,328.3906 C249.2461,328.3906 267.2461,328.3906 267.2461,318.3906" fill="none" style="stroke:#181818;stroke-width:1.5;"/></g><g class="participant participant-head" data-participant="NS"><rect fill="#E2E2F0" height="30.2969" rx="2.5" ry="2.5" style="stroke:#181818;stroke-width:0.5;" width="150.5205" x="277.2461" y="50"/><text fill="#000000" font-family="sans-serif" font-size="14" lengthAdjust="spacing" textLength="136.5205" x="284.2461" y="69.9951">Notification Service</text></g><g class="participant participant-tail" data-participant="NS"><rect fill="#E2E2F0" height="30.2969" rx="2.5" ry="2.5" style="stroke:#181818;stroke-width:0.5;" width="150.5205" x="277.2461" y="292.0938"/><text fill="#000000" font-family="sans-serif" font-size="14" lengthAdjust="spacing" textLength="136.5205" x="284.2461" y="312.0889">Notification Service</text></g><path d="M10,98.2969 L86.624,98.2969 L86.624,105.4297 L76.624,115.4297 L10,115.4297 L10,98.2969" fill="#EEEEEE" style="stroke:#000000;stroke-width:1.5;"/><rect fill="none" height="177.7969" style="stroke:#000000;stroke-width:1.5;" width="437.7666" x="10" y="98.2969"/><text fill="#000000" font-family="sans-serif" font-size="13" font-weight="bold" lengthAdjust="spacing" textLength="31.624" x="25" y="111.3638">loop</text><text fill="#000000" font-family="sans-serif" font-size="11" font-weight="bold" lengthAdjust="spacing" textLength="92.2378" x="101.624" y="110.5073">[Every minute]</text><g class="message" data-participant-1="CS" data-participant-2="DB"><polygon fill="#181818" points="237.2461,132.5625,247.2461,136.5625,237.2461,140.5625,241.2461,136.5625" style="stroke:#181818;stroke-width:1;"/><line style="stroke:#181818;stroke-width:1;" x1="83.668" x2="243.2461" y1="136.5625" y2="136.5625"/><text fill="#000000" font-family="sans-serif" font-size="13" lengthAdjust="spacing" textLength="139.2358" x="90.668" y="131.4966">getValidatedTickets()</text></g><g class="message" data-participant-1="CS" data-participant-2="CS"><line style="stroke:#181818;stroke-width:1;" x1="83.668" x2="125.668" y1="165.6953" y2="165.6953"/><line style="stroke:#181818;stroke-width:1;" x1="125.668" x2="125.668" y1="165.6953" y2="178.6953"/><line style="stroke:#181818;stroke-width:1;" x1="84.668" x2="125.668" y1="178.6953" y2="178.6953"/><polygon fill="#181818" points="94.668,174.6953,84.668,178.6953,94.668,182.6953,90.668,178.6953" style="stroke:#181818;stroke-width:1;"/><text fill="#000000" font-family="sans-serif" font-size="13" lengthAdjust="spacing" textLength="114.188" x="90.668" y="160.6294">checkExpiration()</text></g><path d="M20,193.6953 L84.4429,193.6953 L84.4429,200.8281 L74.4429,210.8281 L20,210.8281 L20,193.6953" fill="#EEEEEE" style="stroke:#000000;stroke-width:1.5;"/><rect fill="none" height="75.3984" style="stroke:#000000;stroke-width:1.5;" width="417.7666" x="20" y="193.6953"/><text fill="#000000" font-family="sans-serif" font-size="13" font-weight="bold" lengthAdjust="spacing" textLength="19.4429" x="35" y="206.7622">alt</text><text fill="#000000" font-family="sans-serif" font-size="11" font-weight="bold" lengthAdjust="spacing" textLength="57.0679" x="99.4429" y="205.9058">[Expired]</text><g class="message" data-participant-1="CS" data-participant-2="DB"><polygon fill="#181818" points="237.2461,227.9609,247.2461,231.9609,237.2461,235.9609,241.2461,231.9609" style="stroke:#181818;stroke-width:1;"/><line style="stroke:#181818;stroke-width:1;" x1="83.668" x2="243.2461" y1="231.9609" y2="231.9609"/><text fill="#000000" font-family="sans-serif" font-size="13" lengthAdjust="spacing" textLength="141.5781" x="90.668" y="226.895">markExpired(ticketId)</text></g><g class="message" data-participant-1="CS" data-participant-2="NS"><polygon fill="#181818" points="340.5063,257.0938,350.5063,261.0938,340.5063,265.0938,344.5063,261.0938" style="stroke:#181818;stroke-width:1;"/><line style="stroke:#181818;stroke-width:1;" x1="83.668" x2="346.5063" y1="261.0938" y2="261.0938"/><text fill="#000000" font-family="sans-serif" font-size="13" lengthAdjust="spacing" textLength="76.9463" x="90.668" y="256.0278">notifyUser()</text></g><!--SRC=[NOyn3i8m34NtdCBgr0vSW861qe6bIu7T90QifacK64HlJnfrGBLaIxR_VvPHYuzGjUGaeeM1ueTY1PYW7PH1mJicWjDH1Op2cWCwWQhtmW_MAEnTyR2cOke7fQpt0RgCcM5YznPIaACTO7V88DZ3a-I6bZETp8NrI9Bgva-KwnxqY_JOVGF7SYKBYWAjG9cIAVq6FM4SrtKj1NqspKROBtYtV31V4yNrD3cZSlu0]--></g></svg>