<svg xmlns="http://www.w3.org/2000/svg" xmlns:xlink="http://www.w3.org/1999/xlink" contentStyleType="text/css" data-diagram-type="SEQUENCE" height="358px" preserveAspectRatio="none" style="width:601px;height:358px;background:#FFFFFF;" version="1.1" viewBox="0 0 601 358" width="601px" zoomAndPan="magnify"><defs/><g><rect fill="none" height="75.3984" style="stroke:#000000;stroke-width:1.5;" width="464.1821" x="10" y="185.6953"/><g><title>Controller</title><rect fill="#000000" fill-opacity="0.00000" height="196.7969" width="8" x="53.5864" y="81.2969"/><line style="stroke:#181818;stroke-width:0.5;stroke-dasharray:5.0,5.0;" x1="57" x2="57" y1="81.2969" y2="278.0938"/></g><g><title>Terminal</title><rect fill="#000000" fill-opacity="0.00000" height="196.7969" width="8" x="139.0679" y="81.2969"/><line style="stroke:#181818;stroke-width:0.5;stroke-dasharray:5.0,5.0;" x1="142.1729" x2="142.1729" y1="81.2969" y2="278.0938"/></g><g><title>Central Server</title><rect fill="#000000" fill-opacity="0.00000" height="196.7969" width="8" x="402.5142" y="81.2969"/><line style="stroke:#181818;stroke-width:0.5;stroke-dasharray:5.0,5.0;" x1="405.8462" x2="405.8462" y1="81.2969" y2="278.0938"/></g><g><title>DB</title><rect fill="#000000" fill-opacity="0.00000" height="196.7969" width="8" x="562.6079" y="81.2969"/><line style="stroke:#181818;stroke-width:0.5;stroke-dasharray:5.0,5.0;" x1="566.6079" x2="566.6079" y1="81.2969" y2="278.0938"/></g><g class="participant participant-head" data-participant="Controller"><text fill="#000000" font-family="sans-serif" font-size="14" lengthAdjust="spacing" textLength="69.1729" x="20" y="77.9951">Controller</text><ellipse cx="57.5864" cy="13.5" fill="#E2E2F0" rx="8" ry="8" style="stroke:#181818;stroke-width:0.5;"/><path d="M57.5864,21.5 L57.5864,48.5 M44.5864,29.5 L70.5864,29.5 M57.5864,48.5 L44.5864,63.5 M57.5864,48.5 L70.5864,63.5" fill="none" style="stroke:#181818;stroke-width:0.5;"/></g><g class="participant participant-tail" data-participant="Controller"><text fill="#000000" font-family="sans-serif" font-size="14" lengthAdjust="spacing" textLength="69.1729" x="20" y="290.0889">Controller</text><ellipse cx="57.5864" cy="301.8906" fill="#E2E2F0" rx="8" ry="8" style="stroke:#181818;stroke-width:0.5;"/><path d="M57.5864,309.8906 L57.5864,336.8906 M44.5864,317.8906 L70.5864,317.8906 M57.5864,336.8906 L44.5864,351.8906 M57.5864,336.8906 L70.5864,351.8906" fill="none" style="stroke:#181818;stroke-width:0.5;"/></g><g class="participant participant-head" data-participant="Terminal"><rect fill="#E2E2F0" height="30.2969" rx="2.5" ry="2.5" style="stroke:#181818;stroke-width:0.5;" width="75.79" x="105.1729" y="50"/><text fill="#000000" font-family="sans-serif" font-size="14" lengthAdjust="spacing" textLength="61.79" x="112.1729" y="69.9951">Terminal</text></g><g class="participant participant-tail" data-participant="Terminal"><rect fill="#E2E2F0" height="30.2969" rx="2.5" ry="2.5" style="stroke:#181818;stroke-width:0.5;" width="75.79" x="105.1729" y="277.0938"/><text fill="#000000" font-family="sans-serif" font-size="14" lengthAdjust="spacing" textLength="61.79" x="112.1729" y="297.0889">Terminal</text></g><g class="participant participant-head" data-participant="CS"><rect fill="#E2E2F0" height="30.2969" rx="2.5" ry="2.5" style="stroke:#181818;stroke-width:0.5;" width="115.3359" x="348.8462" y="50"/><text fill="#000000" font-family="sans-serif" font-size="14" lengthAdjust="spacing" textLength="101.3359" x="355.8462" y="69.9951">Central Server</text></g><g class="participant participant-tail" data-participant="CS"><rect fill="#E2E2F0" height="30.2969" rx="2.5" ry="2.5" style="stroke:#181818;stroke-width:0.5;" width="115.3359" x="348.8462" y="277.0938"/><text fill="#000000" font-family="sans-serif" font-size="14" lengthAdjust="spacing" textLength="101.3359" x="355.8462" y="297.0889">Central Server</text></g><g class="participant participant-head" data-participant="DB"><text fill="#000000" font-family="sans-serif" font-size="14" lengthAdjust="spacing" textLength="20.3848" x="553.4155" y="77.9951">DB</text><path d="M548.6079,29 C548.6079,19 566.6079,19 566.6079,19 C566.6079,19 584.6079,19 584.6079,29 L584.6079,55 C584.6079,65 566.6079,65 566.6079,65 C566.6079,65 548.6079,65 548.6079,55 L548.6079,29" fill="#E2E2F0" style="stroke:#181818;stroke-width:1.5;"/><path d="M548.6079,29 C548.6079,39 566.6079,39 566.6079,39 C566.6079,39 584.6079,39 584.6079,29" fill="none" style="stroke:#181818;stroke-width:1.5;"/></g><g class="participant participant-tail" data-participant="DB"><text fill="#000000" font-family="sans-serif" font-size="14" lengthAdjust="spacing" textLength="20.3848" x="553.4155" y="290.0889">DB</text><path d="M548.6079,303.3906 C548.6079,293.3906 566.6079,293.3906 566.6079,293.3906 C566.6079,293.3906 584.6079,293.3906 584.6079,303.3906 L584.6079,329.3906 C584.6079,339.3906 566.6079,339.3906 566.6079,339.3906 C566.6079,339.3906 548.6079,339.3906 548.6079,329.3906 L548.6079,303.3906" fill="#E2E2F0" style="stroke:#181818;stroke-width:1.5;"/><path d="M548.6079,303.3906 C548.6079,313.3906 566.6079,313.3906 566.6079,313.3906 C566.6079,313.3906 584.6079,313.3906 584.6079,303.3906" fill="none" style="stroke:#181818;stroke-width:1.5;"/></g><g class="message" data-participant-1="Controller" data-participant-2="Terminal"><polygon fill="#181818" points="131.0679,108.4297,141.0679,112.4297,131.0679,116.4297,135.0679,112.4297" style="stroke:#181818;stroke-width:1;"/><line style="stroke:#181818;stroke-width:1;" x1="57.5864" x2="137.0679" y1="112.4297" y2="112.4297"/><text fill="#000000" font-family="sans-serif" font-size="13" lengthAdjust="spacing" textLength="55.0024" x="64.5864" y="107.3638">Scan QR</text></g><g class="message" data-participant-1="Terminal" data-participant-2="CS"><polygon fill="#181818" points="394.5142,137.5625,404.5142,141.5625,394.5142,145.5625,398.5142,141.5625" style="stroke:#181818;stroke-width:1;"/><line style="stroke:#181818;stroke-width:1;" x1="143.0679" x2="400.5142" y1="141.5625" y2="141.5625"/><text fill="#000000" font-family="sans-serif" font-size="13" lengthAdjust="spacing" textLength="150.23" x="150.0679" y="136.4966">validateTicket(ticketId)</text></g><g class="message" data-participant-1="CS" data-participant-2="DB"><polygon fill="#181818" points="554.6079,166.6953,564.6079,170.6953,554.6079,174.6953,558.6079,170.6953" style="stroke:#181818;stroke-width:1;"/><line style="stroke:#181818;stroke-width:1;" x1="406.5142" x2="560.6079" y1="170.6953" y2="170.6953"/><text fill="#000000" font-family="sans-serif" font-size="13" lengthAdjust="spacing" textLength="136.0938" x="413.5142" y="165.6294">checkTicket(ticketId)</text></g><path d="M10,185.6953 L74.4429,185.6953 L74.4429,192.8281 L64.4429,202.8281 L10,202.8281 L10,185.6953" fill="#EEEEEE" style="stroke:#000000;stroke-width:1.5;"/><rect fill="none" height="75.3984" style="stroke:#000000;stroke-width:1.5;" width="464.1821" x="10" y="185.6953"/><text fill="#000000" font-family="sans-serif" font-size="13" font-weight="bold" lengthAdjust="spacing" textLength="19.4429" x="25" y="198.7622">alt</text><text fill="#000000" font-family="sans-serif" font-size="11" font-weight="bold" lengthAdjust="spacing" textLength="119.5444" x="89.4429" y="197.9058">[Already validated]</text><g class="message" data-participant-1="CS" data-participant-2="Terminal"><polygon fill="#181818" points="154.0679,219.9609,144.0679,223.9609,154.0679,227.9609,150.0679,223.9609" style="stroke:#181818;stroke-width:1;"/><line style="stroke:#181818;stroke-width:1;stroke-dasharray:2.0,2.0;" x1="148.0679" x2="405.5142" y1="223.9609" y2="223.9609"/><text fill="#000000" font-family="sans-serif" font-size="13" lengthAdjust="spacing" textLength="239.4463" x="160.0679" y="218.895">Already validated (time + controller)</text></g><g class="message" data-participant-1="Terminal" data-participant-2="Controller"><polygon fill="#181818" points="68.5864,249.0938,58.5864,253.0938,68.5864,257.0938,64.5864,253.0938" style="stroke:#181818;stroke-width:1;"/><line style="stroke:#181818;stroke-width:1;stroke-dasharray:2.0,2.0;" x1="62.5864" x2="142.0679" y1="253.0938" y2="253.0938"/><text fill="#000000" font-family="sans-serif" font-size="13" lengthAdjust="spacing" textLength="30.9448" x="74.5864" y="248.0278">Alert</text></g><!--SRC=[PO_12eCm38RlVOgmqsJi1NOOp7hPSQilaBM15MkL68Iz_L8FYfXB8FdoyGUz30nsoC93IiHcH9ReuuXPe2NkOyQq6vuiAOm97F5CV0ASm3eJKF234q5J6xFvu7fVDN03vp73wstMaQwjqyMCAQg2skWxahCixHagTRa2DRL2_ak-EnAO11w92SDlzGG3MkLs7-30WPfwWWluDNErt6uHIyRjeU8W5aCv_040]--></g></svg>